<?xml version="1.0" encoding="UTF-8" standalone="no"?>
<svg width="75px" height="107px" viewBox="0 0 75 107" version="1.1" xmlns="http://www.w3.org/2000/svg" xmlns:xlink="http://www.w3.org/1999/xlink">
    <!-- Generator: sketchtool 40.3 (33839) - http://www.bohemiancoding.com/sketch -->
    <title>6C724D41-AC9A-47D0-AC4A-FD9BE83A07BF</title>
    <desc>Created with sketchtool.</desc>
    <defs></defs>
    <g id="Page-1" stroke="none" stroke-width="1" fill="none" fill-rule="evenodd">
        <g id="Desktop-HD" transform="translate(-956.000000, -1728.000000)" fill="#417505">
            <g id="icon-8" transform="translate(922.000000, 1708.000000)">
                <path d="M102.078776,44.2701522 C101.277776,44.7751522 99.0517759,44.5511522 98.0757759,44.6201522 C95.5787759,44.7941522 93.0797759,44.9311522 90.5837759,45.1201522 C90.7037759,45.0251522 90.7937759,44.8881522 90.8177759,44.7031522 C91.1257759,42.3381522 92.0897759,38.7911522 94.1247759,37.2811522 C95.9207759,35.9491522 99.6287759,39.9821522 100.928776,41.2061522 C101.721776,41.9541522 103.666776,43.2671522 102.078776,44.2701522 L102.078776,44.2701522 Z M101.489776,40.0431522 C99.9497759,38.6021522 98.2637759,37.2351522 96.4657759,36.1271522 C95.5737759,35.5771522 94.8887759,35.2291522 93.9227759,35.7731522 C91.2317759,37.2871522 89.9577759,41.9051522 89.6067759,44.6861522 C89.5697759,44.9741522 89.7147759,45.1551522 89.9157759,45.2311522 C89.7187759,45.3941522 89.7627759,45.7671522 90.0917759,45.7761522 C92.4537759,45.8441522 94.8137759,45.8071522 97.1757759,45.7211522 C98.9527759,45.6571522 101.291776,45.9501522 102.966776,45.2261522 C106.019776,43.9091522 102.813776,41.2821522 101.489776,40.0431522 L101.489776,40.0431522 Z" id="Fill-2804" transform="translate(96.922764, 40.655770) rotate(40.000000) translate(-96.922764, -40.655770) "></path>
                <path d="M90.0261426,28.8217413 C90.5711426,29.4997413 90.6481426,31.1097413 90.8241426,31.9497413 C91.0251426,32.9057413 91.1861426,33.8697413 91.3481426,34.8337413 C91.2911426,34.7927413 91.2251426,34.7577413 91.1411426,34.7377413 C89.0721426,34.2367413 86.9881426,33.7937413 84.9101426,33.3287413 C84.2441426,33.1797413 82.4171426,33.0897413 82.2031426,32.4167413 C81.9761426,31.7047413 83.3041426,30.6707413 83.8511426,30.1637413 C85.3141426,28.8077413 88.2751426,26.6387413 90.0261426,28.8217413 L90.0261426,28.8217413 Z M89.8761426,26.8557413 C87.7861426,25.9567413 85.2201426,27.4257413 83.6641426,28.7107413 C82.6811426,29.5217413 79.6951426,31.8027413 80.9621426,33.3777413 C81.7211426,34.3217413 83.8831426,34.3327413 84.9551426,34.5717413 C86.9121426,35.0057413 88.8651426,35.4617413 90.8291426,35.8637413 C91.2361426,35.9467413 91.5081426,35.6407413 91.5471426,35.3237413 C91.7491426,35.4297413 92.0751426,35.3197413 92.0621426,35.0407413 C91.9791426,33.3287413 91.7441426,31.6397413 91.4161426,29.9567413 C91.1901426,28.7947413 91.1091426,27.3857413 89.8761426,26.8557413 L89.8761426,26.8557413 Z" id="Fill-2805" transform="translate(86.358246, 31.228214) rotate(40.000000) translate(-86.358246, -31.228214) "></path>
                <g>
                    <path d="M81.9946818,50.8409603 C95.2786818,35.2379603 74.9406818,13.2229603 57.3976818,20.2109603 C49.0566818,23.5339603 46.0256818,33.3989603 49.0846818,41.4699603 C50.5856818,45.4319603 53.4126818,48.5509603 56.8826818,50.7299603 C56.4786818,51.2039603 56.0656818,51.6699603 55.6416818,52.1249603 C48.3676818,47.1479603 44.2596818,38.1439603 46.8346818,29.1129603 C50.7066818,15.5319603 65.9406818,13.8359603 76.5546818,20.4189603 C86.9536818,26.8679603 92.5036818,41.9529603 81.9946818,50.8409603 L81.9946818,50.8409603 Z M81.7876818,51.0119603 C81.6246818,51.1459603 81.4696818,51.2839603 81.2996818,51.4149603 C81.1866818,51.5019603 81.1346818,51.6119603 81.1086818,51.7279603 C76.6616818,45.9389603 71.8836818,40.3769603 67.1406818,34.8239603 C70.5516818,35.9869603 74.0216818,36.9279603 77.3756818,38.2789603 C80.2076818,39.4189603 82.3646818,40.3409603 81.4526818,43.9499603 C81.0186818,45.6679603 80.2156818,47.2889603 79.5786818,48.9359603 C79.4666818,49.2259603 79.8866818,49.3489603 80.0446818,49.1339603 C81.7286818,46.8359603 84.5236818,41.9179603 82.0336818,39.1939603 C80.7686818,37.8109603 78.0526818,37.1629603 76.3916818,36.5279603 C73.2976818,35.3469603 70.1026818,34.2699603 66.8246818,33.7619603 C66.6256818,33.7309603 66.4716818,33.8079603 66.3736818,33.9249603 C66.2466818,33.7769603 66.1206818,33.6289603 65.9936818,33.4809603 C65.7436818,33.1869603 65.4106818,33.2809603 65.2216818,33.5109603 C65.0586818,33.3189603 64.9046818,33.1179603 64.7386818,32.9289603 C64.6506818,32.8279603 64.5476818,32.8249603 64.4596818,32.8669603 C64.3386818,32.7449603 64.1326818,32.7119603 64.0266818,32.9039603 C63.6936818,33.5059603 63.2156818,33.9149603 62.6386818,34.2759603 C62.0576818,34.6389603 62.5766818,35.5799603 63.1506818,35.2089603 C63.5996818,34.9189603 63.9326818,34.5309603 64.1776818,34.0859603 C64.6296818,35.3899603 65.0896818,36.6919603 65.5616818,37.9879603 C65.4096818,37.9479603 65.2396818,38.0029603 65.2076818,38.1939603 C64.9346818,39.8549603 64.7306818,41.5249603 64.5496818,43.1989603 C64.3696818,44.8709603 63.7586818,47.1349603 64.1036818,48.7929603 C64.5616818,50.9899603 67.6936818,50.6629603 69.3756818,50.4179603 C69.9116818,50.3399603 69.8766818,49.5209603 69.3896818,49.3959603 C68.5206818,49.1729603 67.5346818,49.3409603 66.7066818,49.0869603 C65.0636818,48.5849603 65.5206818,47.0979603 65.5866818,45.6829603 C65.6966818,43.3399603 65.7976818,40.9939603 65.8046818,38.6479603 C66.9986818,41.9039603 68.2406818,45.1399603 69.5106818,48.3739603 C70.1336818,49.9599603 70.9746818,51.6479603 71.4466818,53.2849603 C71.9636818,55.0789603 72.6976818,55.3259603 70.7036818,55.9419603 C68.3006818,56.6829603 64.9166818,55.9469603 62.5906818,55.3339603 C60.5386818,54.7929603 58.6096818,53.9619603 56.8376818,52.9069603 C57.2756818,52.4389603 57.7046818,51.9559603 58.1266818,51.4649603 C62.1236818,53.6279603 66.8176818,54.6169603 71.3056818,54.2759603 C71.6016818,54.2529603 71.6166818,53.8259603 71.3116818,53.8079603 C67.0396818,53.5569603 62.6216818,52.6049603 58.8246818,50.6299603 C62.3776818,46.2639603 64.9536818,41.1329603 63.3796818,35.9309603 C63.1476818,35.1649603 62.0626818,35.4499603 62.1856818,36.2259603 C62.4106818,37.6459603 62.3966818,39.0179603 62.2016818,40.3469603 C61.9956818,40.2639603 61.7516818,40.2609603 61.5326818,40.4249603 C60.3616818,41.2969603 57.8886818,43.9509603 56.2706818,43.4479603 C55.4066818,43.1789603 53.6956818,40.1839603 53.8046818,39.3169603 C53.9666818,38.0229603 56.5226818,37.1929603 57.6726818,36.5909603 C59.1906818,35.7979603 60.7366818,35.0549603 62.2326818,34.2219603 C62.5326818,34.0549603 62.3526818,33.5349603 62.0076818,33.6469603 C59.2406818,34.5439603 56.2516818,35.6889603 53.7646818,37.1999603 C52.3436818,38.0629603 51.9856818,39.0299603 52.6386818,40.5289603 C53.2006818,41.8179603 55.0216818,44.9689603 56.6676818,45.1279603 C57.2426818,45.1839603 57.6126818,44.8689603 58.0766818,44.5959603 C59.4236818,43.8019603 60.6816818,42.7049603 61.9346818,41.7259603 C61.1996818,44.6949603 59.5626818,47.4269603 57.5576818,49.9159603 C54.7936818,48.2379603 52.4356818,45.9539603 50.8346818,42.8919603 C46.6726818,34.9299603 49.4906818,24.1009603 58.3946818,20.9949603 C75.2926818,15.0989603 92.6966818,35.3309603 81.1396818,50.2499603 C80.8286818,50.6509603 81.3846818,51.1749603 81.7876818,51.0119603 L81.7876818,51.0119603 Z M74.7176818,50.2039603 C78.4966818,56.0269603 82.2936818,61.8379603 86.1066818,67.6389603 C93.5126818,78.9049603 101.001682,90.1159603 108.545682,101.29096 C108.491682,101.37296 108.447682,101.47096 108.425682,101.59296 C107.484682,106.83696 104.003682,110.63796 100.257682,114.18396 C96.5696818,117.67496 91.5016818,122.07796 86.1036818,121.99196 C76.1846818,112.77296 66.0056818,103.81696 55.8886818,94.8159603 C46.2566818,86.2449603 36.8566818,76.7959603 26.4066818,69.2329603 C26.3196818,69.1699603 26.2306818,69.1569603 26.1496818,69.1749603 C24.7676818,65.3859603 32.4186818,58.2809603 34.5206818,56.2069603 C38.5626818,52.2169603 42.7326818,48.6039603 47.3926818,45.3509603 C49.1446818,48.5909603 51.6356818,51.2489603 54.5776818,53.2349603 C53.4356818,54.3929603 52.2626818,55.4889603 51.1286818,56.5179603 C45.9416818,61.2209603 35.6986818,69.9859603 28.0386818,67.7209603 C27.6646818,67.6109603 27.3886818,68.2019603 27.7646818,68.3699603 C35.6386818,71.8859603 45.9906818,62.8389603 51.4646818,58.0399603 C52.8076818,56.8629603 54.3116818,55.4959603 55.7986818,53.9909603 C61.0286818,57.0789603 67.4336818,58.1939603 73.5206818,56.9019603 C74.0096818,56.7979603 74.1256818,56.2839603 73.9666818,55.8839603 C71.5526818,49.8159603 69.1696818,43.7419603 66.5986818,37.7429603 C69.0676818,42.0299603 72.0596818,46.1099603 74.7176818,50.2039603 L74.7176818,50.2039603 Z M54.3546818,17.2939603 C45.0006818,22.8449603 42.3226818,34.8099603 46.8876818,44.3769603 C43.0206818,46.6989603 18.7726818,66.2339603 26.3806818,70.3829603 C26.4246818,70.4079603 26.4676818,70.4049603 26.5096818,70.4019603 C35.4716818,79.6869603 45.9576818,87.7859603 55.5816818,96.3719603 C65.4836818,105.20696 75.2386818,114.20596 85.1506818,123.02896 C85.3886818,123.24096 85.6676818,123.25096 85.9016818,123.15596 C90.9916818,123.92896 96.0376818,120.15896 99.6346818,117.01096 C104.217682,112.99996 109.028682,108.30096 109.994682,102.02796 C110.015682,101.88896 110.000682,101.76396 109.966682,101.64896 C110.185682,101.44296 110.278682,101.13196 110.055682,100.80196 C102.286682,89.2949603 94.5796818,77.7449603 86.9266818,66.1589603 C83.2656818,60.6179603 79.6206818,55.0659603 75.9916818,49.5049603 C74.0586818,46.5419603 72.2136818,43.4279603 70.2516818,40.4059603 C73.8226818,44.6759603 77.5166818,48.8539603 81.4506818,52.7639603 C81.5966818,52.9089603 81.7706818,52.7599603 81.7446818,52.5979603 C81.8636818,52.6079603 81.9866818,52.5899603 82.1046818,52.5049603 C103.365682,37.1979603 74.2926818,5.46196027 54.3546818,17.2939603 L54.3546818,17.2939603 Z" id="Fill-2803" transform="translate(67.548179, 68.982841) rotate(40.000000) translate(-67.548179, -68.982841) "></path>
                    <path d="M90.1816411,101.09071 C90.0106411,101.12871 89.8616411,101.24671 89.8146411,101.48571 C88.3406411,109.00771 78.6466411,116.82771 71.2106411,117.84871 C71.1226411,117.86071 71.0606411,117.90271 71.0136411,117.95571 C58.2666411,104.17471 43.7706411,90.7937095 28.7116411,79.5047095 C33.7946411,80.8357095 41.0286411,77.0107095 45.0166411,74.4997095 C51.2506411,70.5737095 56.3666411,65.0847095 60.4426411,58.9897095 C60.5546411,58.8207095 60.5726411,58.6567095 60.5306411,58.5127095 C70.4906411,72.6277095 79.9236411,87.1997095 90.1816411,101.09071 L90.1816411,101.09071 Z M43.1326411,67.4227095 C48.1296411,64.2907095 53.4086411,61.8937095 58.6556411,59.2807095 C55.2696411,64.0267095 51.4236411,68.3427095 46.6916411,71.8037095 C42.1606411,75.1177095 33.8226411,80.1697095 27.9396411,78.5057095 C33.0186411,74.8027095 37.7856411,70.7737095 43.1326411,67.4227095 L43.1326411,67.4227095 Z M60.2846411,57.7077095 C60.1636411,57.5207095 59.9556411,57.3997095 59.6976411,57.4877095 C48.2066411,61.3857095 35.5946411,69.2487095 27.3806411,78.2567095 C27.2836411,78.3637095 27.3026411,78.5207095 27.3786411,78.6247095 C27.2476411,78.6877095 27.1606411,78.8737095 27.2906411,78.9927095 C34.4736411,85.5887095 42.0116411,91.7927095 49.2146411,98.3727095 C56.4276411,104.96171 63.2546411,111.93871 70.3706411,118.62371 C70.6206411,118.85771 70.9326411,118.74971 71.0786411,118.53471 C71.1376411,118.58271 71.2086411,118.61671 71.2986411,118.61571 C75.8346411,118.57871 79.3566411,115.86271 82.8016411,113.17471 C86.6806411,110.14771 90.0886411,106.81271 90.9246411,101.79371 C90.9326411,101.74671 90.9226411,101.70771 90.9206411,101.66471 C91.1726411,101.61871 91.3746411,101.37871 91.1996411,101.08771 C82.1766411,86.1007095 71.5936411,71.8157095 61.3306411,57.6587095 C61.0346411,57.2497095 60.4676411,57.3867095 60.2846411,57.7077095 L60.2846411,57.7077095 Z" id="Fill-2806" transform="translate(59.245952, 88.080254) rotate(40.000000) translate(-59.245952, -88.080254) "></path>
                </g>
            </g>
        </g>
    </g>
</svg>