<?xml version="1.0" encoding="UTF-8" standalone="no"?>
<svg width="96px" height="119px" viewBox="0 0 96 119" version="1.1" xmlns="http://www.w3.org/2000/svg" xmlns:xlink="http://www.w3.org/1999/xlink">
    <!-- Generator: sketchtool 40.3 (33839) - http://www.bohemiancoding.com/sketch -->
    <title>8B12766C-1B5A-459A-99A7-C65478100DCD</title>
    <desc>Created with sketchtool.</desc>
    <defs></defs>
    <g id="Page-1" stroke="none" stroke-width="1" fill="none" fill-rule="evenodd">
        <g id="Desktop-HD" transform="translate(-940.000000, -1553.000000)" fill="#417505">
            <g id="icon-7" transform="translate(940.000000, 1553.000000)">
                <path d="M97.0615464,44.1756607 C95.8577064,45.0483007 94.0711464,44.7411007 92.6983464,44.6028607 C91.8861864,44.5212607 91.8093864,45.7299007 92.5140264,45.9641407 C93.8647464,46.4124607 95.6455464,46.9001407 96.4461864,48.2268607 C98.1050664,50.9753407 94.9591464,51.7260607 92.9565864,51.2671807 C90.8839464,50.7919807 89.0685864,49.5545407 87.6132264,48.0271807 C88.3553064,44.8591807 88.1700264,40.8319807 87.6189864,37.9030207 C87.6871464,37.8550207 87.7524264,37.7964607 87.8081064,37.7158207 C89.1578664,35.7391807 90.8791464,32.8745407 93.6804264,33.0751807 C95.4948264,33.2057407 96.6861864,34.8972607 95.8567464,36.5398207 C95.4535464,37.3395007 94.6932264,37.8675007 93.9137064,38.3244607 C93.5393064,38.3686207 93.1716264,38.4415807 92.8221864,38.5462207 C92.0359464,38.7823807 92.3805864,39.8547007 93.1524264,39.7433407 C93.9953064,39.5542207 94.8439464,39.5254207 95.6983464,39.6559807 C97.7316264,40.0227007 98.1857064,41.5289407 97.0615464,44.1756607 L97.0615464,44.1756607 Z M82.3111464,51.4265407 C79.8689064,51.9804607 76.8737064,51.3967807 74.3978664,51.3017407 C71.3642664,51.1846207 68.3133864,51.1519807 65.2836264,50.9513407 C55.5261864,50.3043007 56.2701864,42.1337407 58.2525864,34.8636607 C60.4625064,32.3647807 65.4660264,32.9302207 68.3565864,32.9244607 C71.4074664,32.9177407 74.4593064,33.0569407 77.4948264,33.3507007 C80.0628264,33.5993407 81.6842664,33.7452607 83.7953064,35.4147007 C85.9927464,37.1513407 86.0061864,38.0614207 86.1271464,40.6447807 C86.2980264,44.2822207 86.7453864,50.4195007 82.3111464,51.4265407 L82.3111464,51.4265407 Z M56.7108264,48.1596607 L56.7098664,48.1606207 C55.9034664,50.9331007 53.6724264,52.9711807 50.6465064,52.6495807 C49.1700264,52.4931007 47.4593064,51.6118207 47.4775464,49.8857407 C47.4919464,48.4399807 48.7821864,47.4531007 49.8679464,46.6092607 C50.2077864,46.5209407 50.5361064,46.4038207 50.8394664,46.2540607 C51.3309864,46.0111807 51.0449064,45.3343807 50.5812264,45.2998207 C48.6218664,45.1548607 46.4167464,45.9382207 45.0247464,44.0124607 C44.2980264,43.0063807 44.4535464,41.8582207 45.3895464,41.0460607 C46.2842664,40.2703807 47.4228264,40.2694207 48.5345064,40.4134207 C48.5469864,40.4153407 48.5575464,40.4115007 48.5700264,40.4115007 C48.7812264,40.4575807 48.9953064,40.4969407 49.2180264,40.5161407 C49.5962664,40.5478207 49.8583464,39.9708607 49.5453864,39.7270207 C48.5431464,38.9455807 47.1204264,38.4435007 46.4580264,37.3097407 C45.1956264,35.1478207 46.7085864,32.8246207 48.8906664,32.2975807 C51.8829864,31.5727807 54.4461864,33.5763007 56.5629864,35.4406207 C56.6359464,35.5807807 56.7617064,35.6863807 56.9114664,35.7507007 C56.9210664,35.7593407 56.9306664,35.7679807 56.9402664,35.7766207 C55.6221864,39.7865407 54.9386664,44.7027007 56.7108264,48.1596607 L56.7108264,48.1596607 Z M99.5162664,41.8457407 C99.2388264,39.7462207 97.5569064,38.6393407 95.6877864,38.3561407 C96.3818664,37.8867007 96.9655464,37.2886207 97.2775464,36.4927807 C97.8497064,35.0335807 97.2468264,33.4822207 96.0381864,32.5491007 C92.6599464,29.9379007 89.1223464,33.2988607 87.1764264,36.1462207 C86.1818664,33.4236607 83.8692264,32.5011007 80.9143464,32.0431807 C75.1687464,31.1551807 69.1610664,30.9900607 63.3684264,31.3855807 C60.6756264,31.5699007 57.8916264,31.9145407 56.7271464,34.4719807 C54.0189864,31.6131007 49.6481064,29.0345407 46.1277864,32.1151807 C43.6913064,34.2454207 44.3738664,37.7004607 46.5617064,39.4476607 C44.5591464,39.6281407 42.7437864,41.1391807 43.3025064,43.4739007 C43.8429864,45.7327807 46.2036264,46.8435007 48.4471464,46.7983807 C47.3421864,47.5347007 46.4081064,48.5388607 46.2266664,49.8857407 C45.9981864,51.5820607 47.2317864,52.9433407 48.6727464,53.6211007 C52.2449064,55.3039807 56.3949864,53.1036607 57.6948264,49.6236607 C58.7863464,50.8841407 60.3684264,51.8172607 62.5937064,52.2339007 C67.6874664,53.1881407 73.3639464,52.8396607 78.5402664,53.0527807 C81.5892264,53.1785407 85.2113064,53.5452607 86.8097064,50.3455807 C87.0410664,49.8828607 87.2349864,49.3721407 87.3981864,48.8297407 C89.7761064,51.4889407 94.2890664,54.4937407 97.1892264,51.9737407 C98.2913064,51.0166207 98.4353064,49.4383807 97.8986664,48.1356607 C97.4829864,47.1267007 96.7399464,46.4211007 95.8605864,45.8854207 C97.9764264,45.5139007 99.8570664,44.4185407 99.5162664,41.8457407 L99.5162664,41.8457407 Z" id="Fill-2739" transform="translate(71.378213, 42.458985) rotate(96.000000) translate(-71.378213, -42.458985) "></path>
                <path d="M35.6280529,54.706793 C35.5522129,61.720553 35.3275729,68.755433 35.4734929,75.768233 C24.3605329,82.966313 13.1266129,81.421673 1.91861294,75.765353 C1.93109294,75.711593 1.94933294,75.662633 1.94837294,75.600233 C1.62005294,62.050793 1.09973294,48.212393 2.49173294,34.705193 C2.83637294,31.372073 3.50069294,27.941993 5.44181294,25.126313 C7.59509294,22.005353 10.5298129,21.754793 13.4213329,19.890473 C16.8974929,17.648873 16.1170129,13.037993 15.6619729,9.37943298 C17.8037329,9.99959298 20.6050129,9.74327298 22.8802129,9.19031298 C22.8485329,9.23159298 22.8216529,9.27863298 22.8034129,9.33623298 C21.8136529,12.474473 21.6581329,16.402793 23.9659729,19.036073 C25.5758929,20.873513 28.0987729,21.635753 29.8517329,23.347433 C32.3746129,25.811753 33.9182929,29.103593 34.7678929,32.489513 C36.5486929,39.585833 35.7067729,47.456873 35.6280529,54.706793 L35.6280529,54.706793 Z M14.4168529,7.93559298 C13.8830929,7.63415298 13.4098129,7.24247298 12.9422929,6.83159298 C12.9058129,6.79991298 12.8674129,6.78839298 12.8290129,6.76535298 C12.9845329,5.42039298 14.8507729,6.51575298 15.8203729,6.69047298 C16.8888529,6.88151298 17.9678929,6.94487298 19.0526929,6.88055298 C20.9659729,6.76631298 22.7688529,6.26711298 24.4651729,5.40791298 C24.4421329,6.01559298 24.5141329,6.63575298 24.6859729,7.20983298 C22.6507729,7.63127298 20.6981329,8.08439298 18.6005329,8.09687298 C17.2248529,8.10359298 15.7762129,7.75991298 14.4168529,7.93559298 L14.4168529,7.93559298 Z M21.4603729,1.98743298 C20.6472529,2.18519298 19.8677329,2.47223298 18.9979729,2.52887298 C17.6702929,2.61431298 16.3963729,2.39447298 15.1752529,1.87799298 C16.3349329,1.52663298 17.4773329,1.27511298 18.7205329,1.33175298 C19.7294929,1.37783298 20.5800529,1.68311298 21.4603729,1.98743298 L21.4603729,1.98743298 Z M15.1646929,3.44279298 C15.1790929,3.18071298 15.2146129,2.94359298 15.2078929,2.71703298 C17.1730129,3.71735298 20.0059729,4.26455298 21.9595729,3.13751298 C21.9672529,3.26039298 21.9768529,3.38519298 21.9797329,3.51287298 C21.9912529,4.04951298 21.9605329,4.58903298 21.9250129,5.12471298 C19.7083729,5.74007298 17.3650129,5.88599298 15.1282129,5.36183298 C15.1522129,5.30615298 15.1685329,5.24375298 15.1656529,5.16791298 C15.1454929,4.59479298 15.1339729,4.01495298 15.1646929,3.44279298 L15.1646929,3.44279298 Z M36.8962129,35.519273 C36.3086929,31.117673 34.8446929,26.634473 31.8562129,23.250473 C30.3029329,21.491753 28.5221329,20.643113 26.6789329,19.264553 C23.1480529,16.622633 23.7672529,13.288553 23.6952529,9.45623298 C23.6914129,9.24791298 23.5704529,9.11255298 23.4178129,9.05207298 C24.0734929,8.87351298 24.6763729,8.67287298 25.1851729,8.46455298 C25.4510929,8.35607298 25.5854929,8.15063298 25.6258129,7.93559298 C25.8946129,7.80695298 26.1029329,7.51799298 26.0213329,7.18295298 C25.9176529,6.75575298 25.7352529,6.35063298 25.6334929,5.92055298 C25.5336529,5.49719298 25.4818129,5.06519298 25.4222929,4.63511298 C25.3858129,4.37399298 25.1064529,4.27319298 24.8693329,4.32311298 C24.7166929,4.21847298 24.5160529,4.17527298 24.3038929,4.27031298 C23.8594129,4.46903298 23.4034129,4.64375298 22.9426129,4.80407298 C23.0328529,4.41815298 23.1096529,4.02935298 23.1634129,3.62903298 C23.2238929,3.17495298 23.3294929,2.70071298 23.1403729,2.30711298 C23.4293329,2.12471298 23.5637329,1.70519298 23.2622929,1.42871298 C21.0226129,-0.633367024 16.7064529,-0.296407024 14.3621329,1.37687298 C14.1538129,1.52567298 14.1653329,1.82903298 14.3189329,1.97495298 C13.8590929,2.35799298 13.8763729,2.86007298 13.9195729,3.44279298 C13.9627729,4.03127298 14.0808529,4.59095298 14.2747729,5.14583298 C13.8264529,5.00375298 13.3838929,4.83671298 12.9490129,4.63415298 C12.6168529,4.47959298 12.2482129,4.60055298 12.1310929,4.96727298 C11.9006929,5.68727298 11.8814929,6.17111298 12.1003729,6.81527298 C11.8315729,7.02743298 11.7144529,7.41911298 12.0331729,7.74071298 C12.6638929,8.37335298 13.4741329,8.69783298 14.3333329,8.81975298 C14.4811729,8.90615298 14.6299729,8.99351298 14.7902929,9.06647298 C14.3755729,13.157993 15.0187729,17.591273 10.5538129,19.459433 C8.83733294,20.177513 7.27349294,20.921513 5.91797294,22.240553 C2.75381294,25.320233 1.58453294,29.720873 1.09013294,33.969833 C-0.494827063,47.598953 -0.0676270626,61.919273 0.598612937,75.600233 C0.607252937,75.785513 0.683092937,75.923753 0.784852937,76.030313 C0.797332937,76.120553 0.835732937,76.211753 0.925012937,76.292393 C10.6152529,85.028393 25.9762129,83.797673 36.3202129,77.067113 C36.5544529,76.914473 36.6514129,76.698473 36.6648529,76.478633 C36.7829329,76.367273 36.8664529,76.210793 36.8760529,76.001513 C37.1851729,68.914793 37.1093329,61.799273 37.1861329,54.706793 C37.2552529,48.361193 37.7390929,41.828393 36.8962129,35.519273 L36.8962129,35.519273 Z" id="Fill-2603"></path>
                <g id="Group-5" transform="translate(9.600000, 83.520000)">
                    <path d="M75.8923205,24.0040934 C75.7444805,23.8322534 75.5236805,23.7180134 75.2424005,23.7669734 C63.4948805,25.8127334 51.8337605,28.2933734 40.0507205,30.1557734 C30.9076805,31.6005734 21.6955205,32.2917734 12.5246405,33.3170534 C16.7678405,31.2021734 20.5752005,27.1576934 23.4254405,24.1672934 C28.0756805,19.2885734 34.4011205,13.6111334 34.5604805,6.3957734 C34.5624005,6.3352934 34.5470405,6.2853734 34.5326405,6.2354534 C34.5662405,6.1375334 34.5604805,6.0261734 34.4808005,5.9128934 C34.0804805,5.3474534 33.6139205,4.9068134 33.1032005,4.5583334 C38.9150405,5.5029734 45.5755205,4.0869734 51.2308805,3.3516134 C58.4500805,2.4117734 65.5780805,1.4152934 72.8664005,1.2636134 C72.9124805,1.2626534 72.9460805,1.2453734 72.9864005,1.2367334 C73.0603205,1.3039334 73.1524805,1.3586534 73.2840005,1.3788134 C78.7243205,2.1986534 83.6913605,5.8370534 84.2078405,11.6767334 C84.6696005,16.9010534 80.8142405,22.0869734 75.8923205,24.0040934 L75.8923205,24.0040934 Z M6.49584054,33.9544934 C-2.62031946,33.4236134 2.38512054,23.5970534 5.45712054,19.9615334 C7.60944054,17.4136934 9.91920054,14.9100134 12.4219205,12.6981734 C16.8264005,8.8024934 27.7348805,1.2300134 33.6110405,6.2469734 C33.5937605,6.2940134 33.5755205,6.3391334 33.5716805,6.3957734 C33.1377605,12.8997734 27.2817605,18.2114534 23.0817605,22.7167334 C18.6388805,27.4821734 13.2033605,33.0127334 6.49584054,33.9544934 L6.49584054,33.9544934 Z M73.6267205,0.136573396 C73.5048005,0.119293396 73.3972805,0.140413396 73.2974405,0.175933396 C73.1966405,0.0722533959 73.0555205,0.000253395913 72.8664005,0.000253395913 C66.1051205,-0.0179866041 59.4052805,0.951613396 52.7246405,1.8981734 C48.9134405,2.4376934 45.1041605,2.9916134 41.2651205,3.2978534 C38.0769605,3.5522534 34.8187205,3.3602534 31.6632005,3.8508134 C29.3620805,3.0991334 26.5444805,3.6328934 24.2020805,4.2693734 C18.1089605,5.9244134 12.9912005,10.0197734 8.65584054,14.4568934 C5.19600054,17.9973734 0.316320544,22.4882534 0.0129605444,27.8066534 C-0.166559456,30.9640934 1.52976054,33.9871334 4.42320054,34.7071334 C4.46544054,34.8415334 4.57296054,34.9596134 4.73232054,34.9672934 C16.2292805,35.4568934 28.2264005,33.3343334 39.5697605,31.5890534 C51.6168005,29.7372134 63.6811205,27.6204134 75.6004805,25.0658534 C75.8020805,25.0216934 75.9297605,24.9160934 76.0056005,24.7864934 C78.1464005,24.9381734 80.3438405,22.9116134 81.8097605,21.5234534 C84.0648005,19.3893734 85.5009605,16.6658534 85.6939205,13.5458534 C86.1403205,6.3084134 80.4235205,1.0860134 73.6267205,0.136573396 L73.6267205,0.136573396 Z" id="Fill-2762"></path>
                    <path d="M5.95056054,31.0927334 C5.53872054,31.7397734 4.67664054,31.5794534 4.28304054,30.9880934 C3.96720054,30.5119334 4.04016054,29.9340134 4.27056054,29.4290534 C4.43760054,29.4424934 4.59984054,29.3532134 4.57872054,29.1343334 C4.57008054,29.0469734 4.57776054,28.9624934 4.59888054,28.8847334 C4.64112054,28.8290534 4.68240054,28.7724134 4.72656054,28.7224934 C4.76112054,28.6850534 4.76496054,28.6447334 4.77072054,28.6053734 C4.86000054,28.5160934 4.96944054,28.4431334 5.10960054,28.4095334 C5.61456054,28.2885734 5.95536054,28.7839334 6.09552054,29.1938534 C6.28848054,29.7602534 6.28272054,30.5724134 5.95056054,31.0927334 L5.95056054,31.0927334 Z M5.96496054,27.8191334 C5.14128054,27.3669734 3.74544054,27.9861734 3.91152054,28.9855334 C3.30576054,29.8130534 3.10704054,30.9237734 3.88752054,31.7541734 C4.78704054,32.7112934 6.25872054,32.5116134 6.81648054,31.3154534 C7.32528054,30.2258534 7.09968054,28.4431334 5.96496054,27.8191334 L5.96496054,27.8191334 Z" id="Fill-2763"></path>
                    <path d="M5.07696054,24.7663334 C4.97424054,25.3269734 4.84752054,26.3023334 4.31760054,26.5960934 C4.10544054,26.8869734 3.96144054,26.8264934 3.88848054,26.4146534 C3.92112054,26.2552934 3.95952054,26.0978534 4.00368054,25.9413734 C4.08528054,25.6552934 4.18704054,25.3740134 4.30896054,25.1032934 C4.41744054,24.8623334 4.54896054,24.6338534 4.68528054,24.4072934 C4.79664054,24.4005734 4.90032054,24.3448934 4.92048054,24.2085734 C4.93008054,24.1423334 4.93968054,24.0751334 4.94832054,24.0088934 C5.03184054,23.8888934 5.11536054,23.7698534 5.20464054,23.6546534 C5.20080054,23.6911334 5.20272054,23.7103334 5.19504054,23.7583334 C5.23632054,24.0549734 5.12688054,24.4917734 5.07696054,24.7663334 L5.07696054,24.7663334 Z M5.73840054,22.8808934 C5.46672054,22.5938534 5.00880054,22.5996134 4.69104054,22.8146534 C4.29264054,23.0844134 4.23888054,23.5730534 4.32048054,24.0098534 C4.10160054,24.2892134 3.90576054,24.5868134 3.73488054,24.9084134 C3.45744054,25.4325734 3.03696054,26.2072934 3.15024054,26.8188134 C3.23280054,27.2680934 3.64080054,27.5436134 4.09008054,27.5455334 C4.62672054,27.5464934 5.02608054,27.1528934 5.26512054,26.7093734 C5.61072054,26.0671334 5.79696054,25.3125734 5.89488054,24.5944934 C5.96208054,24.1039334 6.12528054,23.2879334 5.73840054,22.8808934 L5.73840054,22.8808934 Z" id="Fill-2764"></path>
                    <path d="M11.3620805,22.7407334 C11.2593605,23.9426534 10.8369605,25.0994534 10.1284805,26.0757734 C9.97680054,26.3215334 9.79632054,26.5423334 9.58608054,26.7400934 C8.94768054,26.5893734 8.30928054,26.4376934 7.66992054,26.2869734 C7.40208054,25.9288934 7.54512054,24.7528934 7.60848054,24.4015334 C7.75728054,23.5778534 8.10480054,22.8626534 8.57616054,22.2146534 C8.64528054,22.2002534 8.70864054,22.1618534 8.74896054,22.0869734 C8.78640054,22.0178534 8.83632054,21.9218534 8.89776054,21.8114534 C9.01104054,21.6770534 9.11952054,21.5407334 9.24336054,21.4120934 C9.30576054,21.3487334 9.30288054,21.2680934 9.27984054,21.1941734 C9.79344054,20.4684134 10.5614405,19.8328934 11.2910405,21.1797734 C11.4801605,21.5282534 11.3947205,22.3567334 11.3620805,22.7407334 L11.3620805,22.7407334 Z M11.8958405,20.5500134 C10.7726405,18.7308134 8.96400054,20.2284134 8.33712054,21.6127334 C7.02768054,22.9164134 6.22512054,24.9074534 6.84816054,26.7132134 C7.60752054,28.9173734 9.76368054,28.2040934 10.8792005,26.7333734 C12.0187205,25.2328934 12.9969605,22.3327334 11.8958405,20.5500134 L11.8958405,20.5500134 Z" id="Fill-2765"></path>
                    <path d="M11.5300805,16.3000934 C11.4312005,16.6802534 11.2152005,17.1919334 10.9358405,17.4799334 C10.8321605,17.5855334 10.6526405,17.7160934 10.4904005,17.6700134 C10.2062405,17.5903334 10.2782405,17.2245734 10.3492805,17.0028134 C10.5105605,16.5055334 10.9128005,16.1052134 11.3918405,15.9074534 C11.4657605,15.8767334 11.4964805,15.8210534 11.5089605,15.7615334 C11.6184005,15.8968934 11.5713605,16.1426534 11.5300805,16.3000934 L11.5300805,16.3000934 Z M12.0062405,15.1682534 C11.4734405,14.7333734 10.3512005,15.0367334 10.5672005,15.8460134 C9.94512054,16.2424934 9.46128054,16.9365734 9.58992054,17.6709734 C9.77328054,18.7212134 11.1048005,18.5301734 11.6270405,17.8946534 C12.1425605,17.2677734 12.8078405,15.8229734 12.0062405,15.1682534 L12.0062405,15.1682534 Z" id="Fill-2766"></path>
                    <path d="M11.2152005,29.6124134 C11.1067205,30.1980134 10.5144005,30.7960934 9.88752054,30.6511334 C9.65808054,30.5973734 9.40176054,30.4312934 9.30768054,30.2066534 C9.16848054,29.8735334 9.40752054,29.4655334 9.74544054,29.3560934 C9.65328054,29.5874534 9.57264054,29.8130534 9.49104054,29.9916134 C9.35568054,30.2892134 9.74448054,30.6780134 9.98640054,30.3746534 C10.2782405,30.0108134 10.3982405,29.6114534 10.6142405,29.2063334 C10.9464005,28.5823334 11.3092805,29.0997734 11.2152005,29.6124134 L11.2152005,29.6124134 Z M11.2824005,28.1762534 C10.6152005,27.9448934 10.2331205,28.3596134 9.96144054,28.8856934 C9.01968054,28.6639334 8.17584054,29.6767334 8.62320054,30.6060134 C9.16656054,31.7349734 10.6920005,31.6687334 11.4504005,30.8287334 C12.0619205,30.1528934 12.4209605,28.5717734 11.2824005,28.1762534 L11.2824005,28.1762534 Z" id="Fill-2767"></path>
                    <path d="M17.1614405,23.4520934 C16.9665605,24.2575334 16.2648005,25.5592934 15.5371205,26.0114534 C13.6027205,27.2152934 14.2190405,24.1068134 14.5540805,23.4088934 C14.6712005,23.1631334 14.8123205,22.9346534 14.9611205,22.7119334 C15.1444805,22.6936934 15.3153605,22.5612134 15.3144005,22.3279334 C15.3134405,22.2741734 15.3297605,22.2357734 15.3345605,22.1868134 C15.5208005,21.9429734 15.7118405,21.7020134 15.9019205,21.4600934 C16.3128005,21.3612134 16.8283205,21.5704934 17.0692805,22.0399334 C17.2929605,22.4748134 17.2728005,22.9932134 17.1614405,23.4520934 L17.1614405,23.4520934 Z M17.3620805,20.7554534 C16.2638405,19.9356134 14.4724805,20.6124134 14.4628805,21.9429734 C13.4145605,23.0863334 12.6753605,24.7855334 13.1832005,26.1343334 C13.9329605,28.1244134 16.1985605,27.2719334 17.1470405,25.9807334 C18.2136005,24.5282534 19.1438405,22.0860134 17.3620805,20.7554534 L17.3620805,20.7554534 Z" id="Fill-2768"></path>
                    <path d="M16.0920005,17.8274534 C15.9518405,17.9858534 15.5323205,18.5301734 15.3393605,18.1634534 C15.2548805,18.0031334 15.4574405,17.4396134 15.5073605,17.2629734 C15.5496005,17.1180134 15.6014405,16.9778534 15.6580805,16.8405734 C15.7051205,16.8156134 15.7512005,16.7877734 15.7819205,16.7301734 C15.8980805,16.5103334 15.9624005,16.2674534 16.0766405,16.0485734 C16.0843205,16.0360934 16.0900805,16.0245734 16.0977605,16.0130534 C16.3377605,15.5983334 16.8955205,15.4226534 16.9473605,16.0389734 C16.9953605,16.6101734 16.4472005,17.4252134 16.0920005,17.8274534 L16.0920005,17.8274534 Z M17.2017605,14.9743334 C16.1966405,14.4837734 15.2577605,15.4725734 15.1982405,16.4383334 C15.1089605,16.5948134 15.0052805,16.7436134 14.9323205,16.9116134 C14.7220805,17.3964134 14.4398405,18.1010534 14.5953605,18.6396134 C15.0062405,20.0594534 16.6219205,18.6021734 17.0337605,18.0261734 C17.5540805,17.3004134 18.3451205,15.5330534 17.2017605,14.9743334 L17.2017605,14.9743334 Z" id="Fill-2769"></path>
                    <path d="M17.5243205,12.2556134 C17.1950405,12.8690534 16.5720005,13.2501734 15.8961605,13.3356134 C15.8817605,12.8940134 16.0363205,12.4668134 16.3118405,12.1260134 C16.3128005,12.2997734 16.3281605,12.4744934 16.3560005,12.6424934 C16.4030405,12.9208934 16.8398405,12.9016934 16.9012805,12.6424934 C16.9780805,12.3132134 17.0260805,11.6604134 17.3371205,11.4616934 C17.9342405,11.0796134 17.6472005,12.0261734 17.5243205,12.2556134 L17.5243205,12.2556134 Z M18.5601605,11.4117734 C18.4392005,10.7157734 17.7182405,10.4277734 17.0952005,10.6984934 C16.7649605,10.8415334 16.5652805,11.0844134 16.4481605,11.3695334 C15.4488005,11.8130534 14.9400005,12.8364134 15.0926405,13.9279334 C15.1204805,14.1266534 15.3412805,14.2380134 15.5179205,14.2514534 C16.9684805,14.3608934 18.8433605,13.0418534 18.5601605,11.4117734 L18.5601605,11.4117734 Z" id="Fill-2770"></path>
                    <path d="M25.1870405,14.7045734 C25.0910405,15.2344934 24.9432005,15.7672934 24.7617605,16.2751334 C24.5822405,16.7762534 24.3633605,17.2860134 24.0840005,17.7400934 C23.9246405,18.0300134 23.7278405,18.2930534 23.4916805,18.5282534 C22.9752005,19.1714534 22.4059205,19.2568934 21.7828805,18.7855334 C20.8632005,18.4428134 20.6299205,18.0616934 20.6856005,17.0911334 C20.7249605,16.4085734 21.0302405,15.6204134 21.3124805,15.0079334 C21.4171205,14.7823334 21.8952005,13.8991334 22.4366405,13.2300134 C22.4884805,13.5928934 23.0212805,13.8242534 23.2046405,13.4152934 C23.3313605,12.8258534 23.7057605,12.8354534 24.3278405,13.4421734 C25.2964805,13.4527334 25.5835205,13.8732134 25.1870405,14.7045734 L25.1870405,14.7045734 Z M26.4532805,13.2223334 C26.1470405,11.5912934 24.3835205,11.0652134 23.2785605,11.7967334 C21.9595205,11.8572134 20.3956805,14.6757734 20.0952005,15.4092134 C19.2763205,17.4108134 19.7592005,20.7477734 22.6574405,20.2130534 C25.2494405,19.7349734 26.8920005,15.5618534 26.4532805,13.2223334 L26.4532805,13.2223334 Z" id="Fill-2771"></path>
                    <path d="M22.2379205,9.7999334 C22.1428805,10.1810534 21.8750405,10.9615334 21.3739205,10.9096934 C20.7240005,10.8415334 21.3000005,9.8872934 21.4814405,9.5858534 C21.6456005,9.3122534 21.8385605,9.0693734 22.0555205,8.8476134 C22.0824005,8.8562534 22.1102405,8.8620134 22.1361605,8.8773734 C22.4193605,9.0482534 22.2984005,9.5570534 22.2379205,9.7999334 L22.2379205,9.7999334 Z M22.9704005,8.3234534 C22.9281605,8.2735334 22.8734405,8.2370534 22.8235205,8.1948134 C23.0088005,7.9240934 22.7160005,7.5122534 22.3646405,7.6956134 C22.2446405,7.7580134 22.1236805,7.8309734 22.0027205,7.9087334 C21.5025605,7.9116134 21.0331205,8.1938534 20.9832005,8.7688934 C20.4878405,9.3112934 20.1182405,9.9640934 20.0932805,10.6562534 C20.0491205,11.8562534 21.5236805,12.2239334 22.3521605,11.6018534 C23.2315205,10.9404134 23.7403205,9.2325734 22.9704005,8.3234534 L22.9704005,8.3234534 Z" id="Fill-2772"></path>
                    <path d="M28.3809605,10.1013734 C27.5361605,11.0901734 26.0904005,10.3768934 25.7745605,9.2911334 C25.5854405,8.6402534 25.7467205,8.0210534 26.0884805,7.5007334 C26.2171205,7.5554534 26.3688005,7.5650534 26.4907205,7.5026534 C27.2932805,7.0936934 28.7668805,5.6383334 29.0308805,7.4316134 C29.1489605,8.2360934 28.9195205,9.4716134 28.3809605,10.1013734 L28.3809605,10.1013734 Z M29.8891205,6.1999334 C29.0942405,4.9260134 27.5160005,5.1880934 26.5425605,6.0636134 C25.0276805,6.6626534 24.2616005,8.4386534 24.8596805,9.9756134 C25.5009605,11.6239334 27.6504005,12.4053734 29.0568005,11.1660134 C30.2510405,10.1148134 30.7569605,7.5900134 29.8891205,6.1999334 L29.8891205,6.1999334 Z" id="Fill-2773"></path>
                </g>
                <text id="Oil" font-family="Arial-BoldMT, Arial" font-size="18" font-weight="bold">
                    <tspan x="6.72" y="56.32">Oil</tspan>
                </text>
            </g>
        </g>
    </g>
</svg>