<?xml version="1.0" encoding="UTF-8" standalone="no"?>
<svg width="132px" height="127px" viewBox="0 0 132 127" version="1.1" xmlns="http://www.w3.org/2000/svg" xmlns:xlink="http://www.w3.org/1999/xlink">
    <!-- Generator: sketchtool 40.3 (33839) - http://www.bohemiancoding.com/sketch -->
    <title>39F5F6E3-8909-4CE5-9032-BC12F0B714EB</title>
    <desc>Created with sketchtool.</desc>
    <defs></defs>
    <g id="Page-1" stroke="none" stroke-width="1" fill="none" fill-rule="evenodd">
        <g id="Desktop-HD" transform="translate(-922.000000, -1898.000000)" fill="#417505">
            <g id="icon-9" transform="translate(921.000000, 1898.000000)">
                <g id="Group-8" transform="translate(69.209672, 99.621270) rotate(19.000000) translate(-69.209672, -99.621270) translate(37.709672, 73.621270)">
                    <path d="M49.1175643,45.4106608 C41.7522143,51.6730608 28.7723643,50.6945608 20.2983643,47.5462608 C11.7949143,44.3865608 4.76301425,37.6377608 2.34526425,28.7590608 C-0.174135747,19.5060608 3.77026425,9.47121081 7.69661425,1.15206081 C8.26851425,1.35441081 8.84516425,1.54536081 9.41896425,1.74106081 C5.10786425,9.89111081 3.16701425,21.3861108 5.66741425,30.2999608 C7.87426425,38.1669108 14.6743643,44.0578608 22.2154643,46.6998108 C29.7765143,49.3493608 38.7530643,48.8895608 45.5018643,44.3362108 C54.4100143,38.3255608 57.1146643,27.3074608 59.3082143,17.4331608 C59.8478143,17.6032108 60.3855143,17.7789608 60.9251143,17.9471108 C59.9722643,27.3711108 56.6187643,39.0323608 49.1175643,45.4106608 L49.1175643,45.4106608 Z M34.4296143,9.41516081 C42.3079643,11.8728108 50.1274143,14.5204608 57.9924643,17.0151608 C56.1162143,25.7846108 53.8989143,35.3606108 46.9107143,41.5660108 C40.5105643,47.2489108 31.1644643,48.2150608 23.2196143,45.6481608 C15.4343643,43.1325608 8.34546425,36.9442608 6.59081425,28.7115608 C4.70221425,19.8518608 6.91286425,10.2701608 10.2844143,2.03651081 C18.2539643,4.71646081 26.4078143,6.91286081 34.4296143,9.41516081 L34.4296143,9.41516081 Z M62.5477143,17.8796608 C62.5762143,17.5595108 62.4327643,17.3429108 62.2304143,17.2127608 C62.1952643,16.9743108 62.0556143,16.7510608 61.7573143,16.6456108 C44.2174643,10.4003108 25.9508643,4.25951081 7.77641425,0.175460812 C7.53226425,-0.0458891884 7.08671425,-0.0933891884 6.88721425,0.242910812 C1.63086425,9.08076081 -2.13873575,20.8094608 1.35536425,30.9497608 C4.39536425,39.7724108 11.8357643,46.3046108 20.5396643,49.2933108 C29.1086643,52.2364108 41.3465643,53.1075608 49.1308643,47.5662108 C57.9677643,41.2753108 61.6433143,28.0988108 62.5477143,17.8796608 L62.5477143,17.8796608 Z" id="Fill-2575"></path>
                    <path d="M15.5749643,8.76536081 C15.5740143,8.75586081 15.5683143,8.75016081 15.5664143,8.74161081 C15.8628143,8.44426081 15.6766143,7.84766081 15.1845143,7.96546081 C13.3491143,8.40816081 12.3544643,10.3575608 12.7525143,12.1454608 C12.8788643,12.7145108 13.5001643,12.8266108 13.9267143,12.5273608 C15.1151643,11.6932608 15.8172143,10.2150608 15.5749643,8.76536081" id="Fill-2576"></path>
                    <path d="M22.0055143,15.0572108 C21.9855643,14.8957108 21.9105143,14.7836108 21.8117143,14.7076108 C21.7727643,14.3931608 21.4602143,14.1081608 21.1277143,14.3143108 C20.1957643,14.8909608 19.3759143,15.8371608 19.1403143,16.9363108 C18.9693143,17.7333608 19.1659643,18.7280108 19.9326143,19.1469608 C20.7277643,19.5820608 21.6046143,19.1289108 22.0245143,18.4021608 C22.6268143,17.3609608 22.1385143,16.1535108 22.0055143,15.0572108" id="Fill-2577"></path>
                    <path d="M14.7389643,20.0048108 C14.6610643,19.7796608 14.5090643,19.6552108 14.3437643,19.6029608 C14.2554143,19.3882608 14.0397643,19.2410108 13.7861143,19.4025108 C12.2461643,20.3838608 9.18431425,23.8561108 11.9687643,25.2697108 C14.6876643,26.6500608 15.2738143,21.5571108 14.7389643,20.0048108" id="Fill-2578"></path>
                    <path d="M45.4562643,16.7273108 C45.3565143,16.5031108 45.0506143,16.3625108 44.7808143,16.5515608 C43.6303643,17.3600108 42.6556643,18.5684108 42.2994143,19.9544608 C42.0353143,20.9842608 42.6670643,21.9171608 43.7396143,22.0264108 C44.8938643,22.1442108 45.7393643,21.2293608 46.0414643,20.1910108 C46.3179143,19.2410108 46.4395143,17.3191608 45.4562643,16.7273108" id="Fill-2579"></path>
                    <path d="M51.7642643,24.6845108 C51.7243643,24.4527108 51.4184643,24.2997608 51.1895143,24.4755108 C50.3487643,25.1205608 49.5602643,26.2121108 49.4263143,27.2903608 C49.3170643,28.1691108 49.8538143,28.9614108 50.7781643,29.0307608 C53.1246643,29.2055608 53.1683643,25.8283108 51.7642643,24.6845108" id="Fill-2580"></path>
                    <path d="M45.1133143,33.3171608 C45.2558143,32.3861608 45.1038143,30.6847108 44.1367143,30.2154108 C43.7491143,30.0263608 43.3805143,30.2610108 43.3776643,30.6742608 C42.6053143,31.2775108 41.9631143,32.0726608 41.7626643,33.0511608 C41.5593643,34.0382108 42.0932643,35.1744108 43.1762643,35.3188108 C44.3466643,35.4746108 44.9622643,34.3032608 45.1133143,33.3171608" id="Fill-2581"></path>
                    <path d="M31.5625143,24.0233108 C31.5207143,23.8798608 31.4361643,23.7772608 31.3345143,23.7126608 C31.2110143,23.5435608 30.9431143,23.4628108 30.7398143,23.6167108 C29.9646143,24.2057108 29.2245643,25.0797108 29.2112643,26.1028608 C29.2008143,26.8951608 29.6520643,27.6380608 30.4272643,27.8784108 C31.1863143,28.1140108 32.0118643,27.7463608 32.2674143,26.9759108 C32.6113143,25.9385108 31.8427643,24.9733108 31.5625143,24.0233108" id="Fill-2582"></path>
                    <path d="M20.7771643,33.4824608 C20.7562643,33.4663108 20.7344143,33.4615608 20.7125643,33.4492108 C20.7781143,33.2107608 20.4655643,32.9732608 20.2565643,33.1680108 C19.3474143,34.0173108 18.5066643,35.2067108 18.4306643,36.4968108 C18.3765143,37.4059608 18.9968643,38.4110608 20.0029143,38.3322108 C22.2354143,38.1574108 22.1394643,34.5768608 20.7771643,33.4824608" id="Fill-2583"></path>
                    <path d="M36.4863643,41.2506108 C36.7029643,40.3443108 36.5747143,39.3050108 36.0037643,38.5516608 C35.7833643,38.2628608 35.4679643,38.3132108 35.2589643,38.5032108 C35.1934143,38.5003608 35.1231143,38.5222108 35.0566143,38.5792108 C34.3260643,39.1995608 33.6107143,40.2550108 33.5841143,41.2477608 C33.5641643,42.0087108 34.1246643,42.7687108 34.9150643,42.8333108 C35.8213643,42.9083608 36.3049143,42.0077608 36.4863643,41.2506108" id="Fill-2584"></path>
                </g>
                <path d="M36.4560851,43.84905 C37.4602351,44.52735 38.0720351,45.7671 38.3180851,46.92705 C38.5232851,47.8951 38.2990851,48.79285 38.1974351,49.7248 C36.3192851,49.7951 34.4230851,50.8857 33.5937351,52.75245 C32.9667351,52.13115 32.2095851,51.67135 31.3612351,51.49275 C31.0382351,51.42435 30.7294851,51.39395 30.4340351,51.3911 C30.5195351,50.253 30.4216851,48.9762 30.1119851,47.76685 C30.3285851,46.00935 31.9065351,44.0267 33.7362351,43.46715 C34.0117351,43.64005 34.3926851,43.6391 34.5712851,43.32085 C35.2039851,43.2895 35.8461851,43.4377 36.4560851,43.84905 L36.4560851,43.84905 Z M41.3808851,53.4412 C42.0031351,56.3216 38.9612351,59.27325 36.5463351,60.13775 C36.5387351,60.13965 36.5368351,60.1482 36.5301851,60.15105 C35.9867851,59.7321 35.3930351,59.4509 34.7821851,59.2932 C35.8091351,57.5832 35.4481351,55.2519 34.2815351,53.56755 C34.3831851,53.52765 34.4829351,53.46305 34.5646351,53.3481 C35.4414851,52.1226 36.5881351,51.0092 38.2154851,51.0149 C39.6005851,51.01965 41.0797351,52.0428 41.3808851,53.4412 L41.3808851,53.4412 Z M33.3049351,69.06015 C32.9847851,68.3334 32.4622851,67.70355 31.7098851,67.28555 C30.9850351,66.88275 30.1775351,66.7792 29.3871351,66.88655 C29.7661851,65.7152 29.7994351,64.3757 29.5286851,63.116 C30.6876851,60.32775 34.4202351,59.04335 36.4883851,61.7822 C38.7484351,64.77565 36.0646851,67.847 33.3049351,69.06015 L33.3049351,69.06015 Z M28.5074351,76.15095 C28.3392851,76.1709 28.2053351,76.2811 28.1188851,76.41885 C27.7493351,75.90965 27.2952351,75.4736 26.7518351,75.15155 C26.7271351,75.10595 26.6815351,75.0689 26.6055351,75.0575 C26.6017351,75.05655 26.5979351,75.05655 26.5931851,75.05655 C26.5865351,75.05275 26.5808351,75.048 26.5751351,75.04515 C26.4829851,74.9967 26.3870351,74.9967 26.2967851,75.0195 C26.0725851,72.2683 26.0697351,67.9629 29.9086851,67.96765 C34.7688851,67.97335 32.0271851,75.7358 28.5074351,76.15095 L28.5074351,76.15095 Z M24.4632851,84.6658 C22.2773351,84.1148 21.2513351,81.6068 21.6522351,79.5567 C22.0844851,77.34415 23.9426851,76.01985 26.0288851,75.6123 C26.0469351,75.6351 26.0592851,75.65885 26.0849351,75.67975 C27.5327351,76.83305 28.2509351,78.43095 28.2594851,80.28535 C28.2699351,82.46845 27.2344351,85.36405 24.4632851,84.6658 L24.4632851,84.6658 Z M16.7264851,71.42945 C16.6314851,69.14375 18.9029351,68.06645 20.9121851,68.37235 C21.2465851,68.42365 21.5505851,68.5139 21.8441351,68.62125 C21.8688351,68.66495 21.8916351,68.7115 21.9163351,68.75615 C22.0179851,68.9357 22.2383851,68.94425 22.3922851,68.85685 C23.4429851,69.38885 24.2732851,70.2391 25.1634351,71.1055 C25.1748351,71.1169 25.1890851,71.1207 25.2014351,71.1302 C24.9772351,72.426 25.1472851,73.81015 25.6488851,75.0062 C25.0950351,75.01855 24.5867851,75.13445 24.1070351,75.30165 C24.0557351,75.276 24.0006351,75.257 23.9369851,75.2589 C21.3216351,75.37195 16.8737351,74.96155 16.7264851,71.42945 L16.7264851,71.42945 Z M13.3283351,62.793 C14.2260851,59.57535 18.5181851,59.96675 20.6442851,61.5295 C20.6271851,61.5751 20.6034351,61.61785 20.5872851,61.66345 C19.8994851,63.59955 20.3583351,65.5195 21.1715351,67.2979 C20.7136351,67.19815 20.2452851,67.13925 19.7683851,67.15445 C18.6882351,67.18865 17.6441851,67.6095 16.8414351,68.3011 C14.7780351,67.16205 12.5749851,65.49385 13.3283351,62.793 L13.3283351,62.793 Z M9.20248514,59.67605 C7.39368514,58.5199 7.06213514,56.4565 8.34653514,54.7142 C10.3149351,52.04375 13.3824851,52.7344 15.9208851,53.9143 C15.9959351,53.94945 16.0804851,53.95515 16.1631351,53.94565 C16.1165851,54.0986 16.0662351,54.24965 16.0339351,54.4102 C15.6710351,56.20855 16.3246351,57.834 17.3572851,59.23335 C15.7574851,59.1279 14.1747851,59.58105 13.1335851,60.77235 C11.7788851,60.5966 10.3662351,60.42085 9.20248514,59.67605 L9.20248514,59.67605 Z M2.90303514,47.44385 C4.75363514,44.0799 8.73223514,45.10685 11.4093351,46.5955 C11.4368851,46.6107 11.4615851,46.61165 11.4881851,46.62305 C10.8355351,48.2789 11.0112851,50.22545 12.2377351,51.5241 C10.6977851,51.59915 9.13788514,52.21855 8.01593514,53.21605 C5.05763514,52.8712 0.89093514,51.0985 2.90303514,47.44385 L2.90303514,47.44385 Z M11.9688851,37.45935 C14.6630851,38.2621 15.6121351,40.8879 16.1365351,43.37025 C15.2302351,43.40065 14.3210851,43.6543 13.4907851,44.17205 C12.8694851,44.55965 12.3583851,45.0831 11.9717351,45.6816 C11.9650851,45.6759 11.9622351,45.6683 11.9546351,45.6626 C10.4640851,44.53875 8.47478514,43.9222 6.60328514,44.0096 C6.69258514,43.93265 6.74673514,43.812 6.71158514,43.6486 C6.00383514,40.4053 8.10523514,36.307 11.9688851,37.45935 L11.9688851,37.45935 Z M20.7801351,47.6082 C20.6984351,48.7425 20.8542351,49.9281 21.1971851,50.96075 C20.7212351,50.87145 20.2300851,50.84675 19.7294351,50.90185 C18.2455351,51.0662 17.0779851,51.9649 16.4481351,53.22555 C15.7080851,52.3069 14.6801851,51.7863 13.5639351,51.5963 C11.7171351,49.4322 11.7294851,46.1794 14.7105851,44.90355 C17.3392351,43.7778 19.5565351,45.37095 20.7801351,47.6082 L20.7801351,47.6082 Z M17.2898351,38.74755 C17.7667351,37.1297 19.2183351,35.63345 21.0518351,36.03815 C24.3920351,36.7744 24.2390851,40.4433 24.6627851,43.071 C22.7409351,43.21825 21.6142351,44.40195 21.1012351,45.94855 C20.2063351,44.57295 18.7290851,43.66475 17.1416351,43.42725 C17.2204851,43.3826 17.2755851,43.30185 17.2641851,43.17455 C17.1349851,41.6954 16.8585351,40.20675 17.2898351,38.74755 L17.2898351,38.74755 Z M26.0032351,58.74885 C26.1295851,58.34225 26.1922851,57.92615 26.2160351,57.5091 C26.8449351,55.14455 28.0039351,52.343 30.8653351,52.71445 C34.0022351,53.12105 34.1713351,56.7035 33.7352851,59.0652 C33.7295851,59.0918 33.7352851,59.11555 33.7333851,59.1412 C31.8504851,59.08515 30.0017851,60.13395 29.1876351,61.9627 C28.5986351,60.456 27.5175351,59.2134 26.0032351,58.74885 L26.0032351,58.74885 Z M24.5269351,59.71975 C26.4231351,59.6371 27.9374351,61.2445 28.4285851,62.9412 C28.8389851,64.36145 28.5492351,65.70855 28.4618351,67.12025 C27.6163351,67.4233 26.8401851,67.95055 26.2872851,68.6355 C25.9091851,69.10195 25.6336851,69.63015 25.4389351,70.18875 C24.6304851,69.07155 23.5037851,68.1415 22.2231851,67.6152 C21.3102351,64.80985 20.4865851,59.8974 24.5269351,59.71975 L24.5269351,59.71975 Z M24.9563351,58.5731 C24.7368851,58.5598 24.5174351,58.5484 24.2846851,58.56645 C22.9337851,58.67 21.8289351,59.48035 21.1240351,60.57665 C20.3602351,60.01045 19.4168851,59.5991 18.4288851,59.38345 C17.6764851,58.23205 17.0656351,56.92865 17.0865351,55.5293 C17.1150351,53.66445 18.4450351,52.0618 20.3944351,52.1416 C23.9037351,52.28505 24.9952851,55.65375 24.9563351,58.5731 L24.9563351,58.5731 Z M21.7994851,47.517 C21.8460351,47.28425 21.9049351,47.05245 21.9894851,46.8197 C22.5746851,45.21705 24.0832851,43.9507 25.8702351,44.4181 C29.0869351,45.2617 29.1496351,48.83465 29.3899851,51.5184 C27.7065851,51.9611 26.5542351,53.49725 25.8911351,55.23955 C25.2698351,53.445 23.8552851,51.88795 22.1091851,51.22105 C21.8279851,50.16085 21.6113851,49.08355 21.7225351,48.00815 C21.8127851,47.90175 21.8650351,47.7621 21.8260851,47.60345 C21.8194351,47.574 21.8070851,47.54645 21.7994851,47.517 L21.7994851,47.517 Z M30.5347351,36.10085 C33.9186351,36.00395 34.2416351,39.7783 33.6155851,42.2502 C31.7497851,42.76795 30.1490351,44.36965 29.5619351,46.2136 C28.8085851,44.58055 27.5460351,43.31515 25.6621851,43.08905 C25.6650351,43.071 25.6659851,43.052 25.6697851,43.033 C25.6697851,43.033 25.6697851,43.03395 25.6707351,43.03395 C26.0022851,43.16125 26.1438351,42.67865 25.8958851,42.4991 C25.7970851,42.42785 25.7628851,42.27205 25.7695351,42.0678 C25.7714351,42.0336 25.7733351,41.9994 25.7742851,41.96425 C25.8179851,41.49875 26.0459851,40.82235 26.2967851,40.1906 C26.3290851,40.1431 26.3528351,40.0918 26.3594851,40.0329 C26.6520851,39.3166 26.9598851,38.6896 27.0406351,38.55185 C27.7702351,37.3083 28.9995351,36.1455 30.5347351,36.10085 L30.5347351,36.10085 Z M43.5240851,39.45245 C42.2463351,37.70065 40.1278351,36.11605 37.8497351,36.34595 C36.5995351,36.4723 35.6172351,37.11165 35.0500851,38.07305 C34.9332351,37.7244 34.7869351,37.38145 34.5912351,37.05085 C33.6184351,35.40545 31.7421851,34.3975 29.8307851,34.79175 C28.0010851,35.1689 26.6330851,36.6015 25.8797351,38.2545 C23.9683351,31.00125 24.5506851,24.37595 27.6657351,17.3412 C28.0457351,16.4824 26.8819851,15.74235 26.3765851,16.58785 C22.8226351,22.5377 22.0996851,30.056 24.1763851,36.64425 C23.3042851,35.5128 22.0844851,34.73665 20.5008351,34.7224 C17.5995351,34.6958 16.3236851,37.0803 16.1460351,39.6016 C15.0791851,37.5591 13.1981851,36.0163 10.6996851,36.0429 C6.68498514,36.0866 4.57883514,40.3977 5.99623514,43.8462 C6.03328514,43.9355 6.09218514,43.9944 6.15773514,44.0362 C4.17508514,44.2528 2.38623514,45.30825 1.55403514,47.4695 C0.0340351398,51.4196 3.76753514,53.86205 7.22648514,54.09765 C7.13908514,54.2183 7.04598514,54.3361 6.97093514,54.46435 C6.00288514,56.12875 6.01903514,58.2064 7.34903514,59.66845 C8.68663514,61.13905 10.6588351,61.539 12.5749851,61.577 C12.5521851,61.6188 12.5246351,61.653 12.5027851,61.69575 C11.0027351,64.7443 13.3330851,67.9895 16.2847351,68.8806 C15.9180351,69.34135 15.6358851,69.8724 15.4990851,70.4766 C14.6725851,74.1379 18.8611351,76.5851 22.2478851,76.42455 C19.6220851,78.93065 19.4700851,84.0274 23.6092351,85.6766 C28.6508851,87.68585 30.5670351,81.01875 28.5558851,77.13515 C30.7541851,77.309 32.5895851,74.9017 33.3191851,73.02925 C33.6716351,72.12485 33.7732851,71.0922 33.6060851,70.1251 C33.6184351,70.12225 33.6279351,70.1251 33.6402851,70.1213 C37.3880351,68.81315 40.3330351,64.0983 37.1315351,60.70775 C40.6351351,60.31255 44.0456351,55.459 42.4078351,52.16915 C41.7532851,50.8553 40.6626851,50.1124 39.4571351,49.8388 C40.5762351,47.2035 38.8548351,43.08715 36.1625351,42.2635 C35.7863351,42.14855 35.4072851,42.0906 35.0320351,42.07825 C35.2666851,41.266 35.3835351,40.42525 35.3398351,39.5959 C36.6555851,35.74365 41.3067851,38.549 42.6747851,40.81285 C44.3106851,43.5213 43.4233851,46.434 40.2304351,47.1294 C39.6879851,47.24815 39.6642351,48.14875 40.2304351,48.2504 C42.1133351,48.58955 43.8109851,47.29375 44.5652851,45.6018 C45.4839351,43.5384 44.7970851,41.1995 43.5240851,39.45245 L43.5240851,39.45245 Z" id="Fill-2574" transform="translate(23.096294, 51.130365) rotate(-2.000000) translate(-23.096294, -51.130365) "></path>
                <path d="M76.5180574,30.6819581 C76.6738574,30.4767581 76.8277574,30.2706081 76.9759574,30.0549581 C83.6554074,20.2737581 74.8508074,3.95655814 62.8589574,4.93980814 C62.4533074,4.97305814 62.4400074,5.58010814 62.8589574,5.58200814 C76.5750574,5.61810814 84.0715074,26.6378081 71.0764574,33.6279081 C59.1254574,40.0565581 46.8324574,28.0694581 46.6519574,16.2495581 C46.4524574,3.25925814 64.1481074,-1.92394186 74.0414074,3.76560814 C84.2852574,9.65750814 84.7317574,23.0857581 76.5180574,30.6819581 L76.5180574,30.6819581 Z M79.9190574,7.04215814 C73.0714574,-1.43849186 60.0441074,-1.43754186 51.4257074,4.46480814 C42.4795574,10.5913581 44.8697574,24.1678081 51.6480074,31.0819081 C58.0310574,37.5932081 69.0624574,38.5793081 75.4027574,31.9834581 C75.4654574,32.3929081 75.9376074,32.7805081 76.3356574,32.4803081 C84.2776574,26.4867581 86.3125574,14.9594581 79.9190574,7.04215814 L79.9190574,7.04215814 Z" id="Fill-2756"></path>
                <path d="M124.942142,69.3537949 C123.715176,78.3797512 121.979416,87.2915619 120.075503,96.2002019 C120.019091,96.2382504 119.960509,96.2657299 119.907351,96.3249165 C117.743074,98.718803 114.032886,98.6490474 110.99205,98.6575026 C109.813902,98.6606733 101.216462,98.4820566 101.980197,96.5880855 C102.144009,96.1822345 101.77516,95.9423174 101.421499,95.9719107 C101.102553,87.8876555 100.259624,79.7304739 99.807241,71.643048 C99.3971676,64.312365 99.5989497,55.8782747 97.4422669,48.7885658 C102.691859,51.0831034 108.491469,51.2469234 114.335559,51.1359485 C119.273798,51.042941 124.951906,51.0112339 129.343381,48.5549901 C125.310992,54.2517002 125.83172,62.8041637 124.942142,69.3537949 L124.942142,69.3537949 Z M121.134317,41.2612987 C120.988947,41.3553631 120.856595,41.4494276 120.738347,41.5413782 C120.639625,41.619589 120.610334,41.7210518 120.615759,41.8225145 C120.485577,41.8140593 120.358649,41.8151162 120.229552,41.8225145 C119.959424,41.6798325 119.675193,41.5625162 119.385538,41.4578828 C119.352993,30.5041345 120.230637,19.7290028 121.020408,8.83972561 C121.36539,9.13143099 121.787397,9.34598241 122.276665,9.44216063 C122.796308,9.54362337 123.426606,9.47703845 123.997238,9.27199916 C122.522926,19.847376 121.487978,30.6087679 121.134317,41.2612987 L121.134317,41.2612987 Z M121.189644,6.49974116 C122.045592,6.40144913 122.908048,6.56843989 123.65551,6.9880306 C123.886583,7.11802974 124.074262,7.29347573 124.253262,7.47737694 C124.251093,7.48688907 124.244584,7.49111669 124.242414,7.50168572 C124.231565,7.57778278 124.221802,7.65387983 124.210953,7.73103379 C123.716261,8.14745379 123.224824,8.49517505 122.451326,8.36728973 C121.909985,8.27745292 121.447839,7.95404044 121.11479,7.53339283 C121.139741,7.18778537 121.164693,6.84429172 121.189644,6.49974116 L121.189644,6.49974116 Z M132.07395,42.584542 C132.001265,42.1512115 131.405682,42.0656023 131.103008,42.3118609 C131.076972,42.2790968 131.063954,42.2452759 131.029239,42.2146257 C128.640398,40.1039893 125.828465,38.7543235 122.624902,38.3262776 C122.503398,38.310424 122.399253,38.3379035 122.305956,38.3812366 C123.415758,28.4389449 124.329202,18.4427512 125.166706,8.48037841 C125.193828,8.44444368 125.213355,8.40322445 125.239391,8.36623282 C125.261088,8.37891566 125.277361,8.39793993 125.299058,8.40850896 C125.552913,8.5374512 125.858841,8.37891566 125.864265,8.0924948 C125.882708,7.16876111 124.694796,6.40461984 123.920213,6.06535381 C123.007854,5.66373046 122.016301,5.60031625 121.056208,5.84023335 C120.863104,5.72925848 120.559346,5.77259153 120.506189,6.03153289 C120.483407,6.14356467 120.467134,6.25876716 120.444352,6.37185583 C120.267522,6.32006756 120.037533,6.41518888 120.034279,6.63608172 C120.028854,6.99648583 120.092861,7.3442071 120.20894,7.66761958 C118.153148,18.6329938 117.955705,30.147958 118.623973,41.2317054 C117.540207,40.9780486 116.39352,40.9812193 115.336876,41.280323 C114.922463,41.3986962 115.102548,41.9630827 115.511537,41.8986116 C116.6886,41.7147103 117.766941,41.8774735 118.731373,42.2970642 C118.696658,42.3182023 118.658688,42.331942 118.623973,42.3551939 C118.004523,42.7779553 117.164849,43.6615267 117.551056,44.436237 C117.655202,44.6433901 118.012117,44.7490804 118.206306,44.6032277 C118.684725,44.2470512 118.727034,43.6065677 119.18918,43.1954322 C119.355162,43.0485226 119.540672,42.9417754 119.73269,42.8529955 C120.372752,43.2916104 120.949893,43.8475417 121.445669,44.5081064 C121.890458,45.0999724 122.85489,44.5916018 122.476277,43.9215249 C122.16818,43.3761627 121.757021,42.9153528 121.284026,42.5253554 C121.36756,42.4154374 121.392512,42.2632433 121.351287,42.1279596 C121.858997,41.8045472 122.411186,41.5783698 123.019787,41.5096711 C123.573061,41.4483707 124.111147,41.6132476 124.655742,41.5181263 C125.076664,41.4451999 125.062561,40.8956101 124.765312,40.699026 C124.021104,40.206509 122.957951,40.3935809 122.042337,40.7846352 C122.100919,40.2773215 122.151907,39.7668371 122.209404,39.2584665 C122.251713,39.2796046 122.290768,39.3028565 122.346095,39.3144824 C125.179725,39.8936655 127.754075,41.0932511 129.932455,42.9470599 C125.130906,45.8873655 118.619634,44.9974528 113.165005,45.0471272 C106.991121,45.1020862 101.143777,44.9150143 95.5307604,42.211455 C102.679925,40.0141525 109.980969,39.0365168 117.468607,39.5332614 C118.295263,39.5882204 118.290924,38.3357897 117.468607,38.2797738 C109.745557,37.7513221 102.396779,38.7522097 95.2107295,41.5783698 C95.0176261,41.6544668 94.952535,41.8341405 94.9785714,41.9916191 C94.7616013,41.9884484 94.5674131,42.2304793 94.7442437,42.4027546 C94.6975952,42.4355186 94.647692,42.464055 94.6151465,42.5221847 C94.3103035,43.0654331 94.3656309,43.7217702 94.33634,44.3284328 C94.3189823,44.6793248 94.2886065,45.0333875 94.2962005,45.3842795 C94.3027096,45.6728141 94.4556735,45.9074467 94.4654372,46.1769571 C94.4752008,46.4718332 94.960129,46.5669545 95.0187109,46.2498835 C95.068614,45.9846007 95.243275,45.7922442 95.2986023,45.5163924 C95.3582691,45.2130611 95.3767116,44.8991607 95.4081722,44.5926587 C95.4602451,44.0758329 95.5882574,43.4871376 95.5090633,42.9576289 C100.677291,46.4602073 107.024751,46.3545169 113.165005,46.3143546 C118.420021,46.2805337 126.616067,47.6841016 130.844814,43.6763233 C130.844814,44.4901391 130.942451,45.3250929 131.012966,46.1262257 C125.603901,49.5305121 119.871551,49.8824609 113.52843,50.0114032 C106.88806,50.1466868 100.375703,49.7122995 94.4242128,46.594434 C94.1345578,46.4422399 93.8991452,46.8438632 94.1681881,47.021423 C95.0089473,47.5752405 95.8692337,48.0497902 96.7447081,48.468324 C96.1100705,56.5578637 97.9846922,65.3703255 98.3871717,73.5053121 C98.7733785,81.2989188 98.4446688,89.4952058 100.329054,97.1197079 C100.336648,97.1503581 100.355091,97.1714962 100.367024,97.1989757 C100.324715,97.3543405 100.28349,97.5625505 100.199957,97.9314099 C100.112084,98.3171797 100.317121,98.6976649 100.714176,98.8139243 C106.12758,100.39928 116.909909,102.555363 121.102856,97.4896242 C121.105026,97.4864535 121.105026,97.4822259 121.108281,97.4790551 C121.273178,97.3997874 121.407699,97.2486502 121.464112,97.0129607 C123.498206,88.6000085 125.026761,80.0591709 126.217927,71.4961384 C127.293013,63.7638321 127.337492,55.711284 130.106031,48.3277558 C130.140746,48.2368621 130.113625,48.1713341 130.066976,48.1195458 C130.563838,47.7982471 131.047681,47.4526397 131.503318,47.0563009 C131.701846,47.055244 131.89278,46.9284155 131.929664,46.6832139 C131.942683,46.6705311 131.957871,46.659962 131.970889,46.6472792 C132.163992,46.4612642 132.132532,46.1959814 131.993671,46.0163078 C132.097816,44.8801365 132.256204,43.6773802 132.07395,42.584542 L132.07395,42.584542 Z" id="Fill-2777" transform="translate(113.103643, 53.177730) scale(-1, 1) translate(-113.103643, -53.177730) "></path>
            </g>
        </g>
    </g>
</svg>