<?xml version="1.0" encoding="UTF-8" standalone="no"?>
<svg width="120px" height="116px" viewBox="0 0 120 116" version="1.1" xmlns="http://www.w3.org/2000/svg" xmlns:xlink="http://www.w3.org/1999/xlink">
    <!-- Generator: sketchtool 40.3 (33839) - http://www.bohemiancoding.com/sketch -->
    <title>3EA35520-8EB9-4DC0-9813-AE940CA511B4</title>
    <desc>Created with sketchtool.</desc>
    <defs></defs>
    <g id="Page-1" stroke="none" stroke-width="1" fill="none" fill-rule="evenodd">
        <g id="Desktop-HD" transform="translate(-943.000000, -593.000000)" fill="#417505">
            <g id="icon-1" transform="translate(943.000000, 586.000000)">
                <path d="M114.91176,69.6154286 C113.922208,68.6751301 112.585193,68.1342346 110.961611,68.2963241 C110.922208,68.1951301 110.848775,68.1100555 110.728775,68.0769211 C110.00967,67.8781152 109.281611,67.792145 108.564297,67.8011002 C107.581909,66.9369211 106.869969,65.7118465 106.52967,64.4984137 C106.422208,64.113339 106.183999,63.3360256 106.45176,62.9993092 C106.842208,62.8022943 107.233551,62.6043838 107.624894,62.4055778 C108.094148,62.5345331 108.456834,62.8130405 108.713849,63.2411002 C109.170566,63.9181152 109.225193,64.7885629 109.55564,65.5219958 C109.71773,65.8811002 110.148476,65.7718465 110.323103,65.5040853 C110.639223,65.5148316 110.913252,65.1548316 110.62579,64.8682644 C110.5237,64.7661749 110.443103,64.6587122 110.373252,64.5476674 C110.333849,64.1912495 110.253252,63.8330405 110.12967,63.4846823 C110.242506,62.5560256 111.137133,61.7581152 112.250267,62.0393092 C113.041909,62.2399062 113.606984,62.8524435 113.724297,63.6628913 C113.850566,64.5351301 113.386685,65.1324435 113.123402,65.9106525 C112.998029,66.2822943 113.443103,66.5652793 113.75564,66.3960256 C113.795939,66.3745331 113.826387,66.3405032 113.864894,66.3163241 C114.050267,66.5312495 114.472058,66.4569211 114.497133,66.091548 C114.565193,65.0867719 115.551163,64.4142346 116.519223,64.5064734 C117.574148,64.6067719 118.124894,65.7252793 118.118626,66.670951 C118.104297,68.6500555 116.393849,69.0655778 114.91176,69.6154286 L114.91176,69.6154286 Z M114.489073,77.5999062 C112.910267,80.570354 109.239521,82.053339 106.129372,80.470951 C103.410566,79.0882644 102.25982,75.7399062 103.238626,72.9190107 C104.048178,70.5861749 106.248476,69.1882644 108.596536,68.8551301 C109.149073,69.1470704 109.71773,69.3396077 110.264894,69.3861749 C110.266685,69.3861749 110.267581,69.3852793 110.268476,69.3852793 C110.37773,69.5500555 110.554148,69.6593092 110.78967,69.6369211 C115.295043,69.209757 116.17176,74.4324435 114.489073,77.5999062 L114.489073,77.5999062 Z M112.913849,88.4724435 C112.912954,88.8879659 112.888775,89.7413987 112.586088,90.0449808 C111.625193,91.0094584 110.537133,90.5070704 109.782208,89.6599062 C109.209969,89.0196077 108.899223,88.2628913 108.734446,87.4613987 C108.728178,87.0396077 108.683402,86.6366226 108.591163,86.2846823 C108.591163,86.2846823 108.588476,86.2811002 108.588476,86.2793092 C108.581312,86.1602047 108.574148,86.0411002 108.570566,85.9211002 C108.563402,85.6488614 108.181014,85.5978167 108.098626,85.8575181 C108.087879,85.891548 108.084297,85.9300555 108.074446,85.9649808 C107.89982,85.9793092 107.741312,86.0787122 107.709073,86.2846823 C107.48967,87.6843838 107.785193,90.9799062 105.463103,90.7488614 C103.681014,90.5706525 103.627282,88.8548316 104.041909,87.3808017 C104.314148,86.9554286 104.537133,86.4969211 104.69564,86.0330405 C104.71982,85.9596077 104.713551,85.8906525 104.693849,85.8279659 C104.712655,85.7966226 104.731461,85.7616973 104.750267,85.732145 C104.919521,85.4652793 104.516536,85.1419958 104.306088,85.3891599 C104.240715,85.4652793 104.178924,85.5440853 104.116237,85.6219958 C104.097431,85.6354286 104.076834,85.6452793 104.060715,85.6631898 C103.437431,86.3419958 102.654745,87.8222943 101.648178,87.9575181 C99.558924,88.2378167 99.4487748,86.3052793 100.012954,84.8599062 C100.736536,83.009757 102.361909,81.6611002 104.211163,81.0163241 C105.151461,81.770354 106.282506,82.3076674 107.555043,82.5252793 C108.58579,82.7008017 109.584297,82.6605032 110.5237,82.4518465 C111.740715,84.1873689 112.921909,86.3070704 112.913849,88.4724435 L112.913849,88.4724435 Z M118.852058,65.0993092 C118.078327,63.5608017 116.116237,63.2312495 114.86967,63.9790107 C114.863402,63.6225928 114.814148,63.2760256 114.718327,62.9769211 C114.346685,61.8145331 113.292655,61.010354 112.0837,60.9064734 C111.006387,60.813339 109.958626,61.3175181 109.47773,62.2945331 C109.190267,61.930951 108.845491,61.6219958 108.430864,61.4258764 C107.236237,60.8590107 105.823103,61.2270704 105.323402,62.5148316 C104.615043,64.3408017 105.693252,66.5205032 107.277431,67.930951 C104.512954,68.4378167 102.138029,70.4384137 101.503999,73.4393092 C100.945193,76.0846823 101.838924,78.7425928 103.646088,80.5157271 C100.824297,81.2366226 98.0016106,83.9572196 98.5845957,87.0655778 C98.8460882,88.4608017 99.978924,89.4091599 101.431461,89.2166226 C101.930267,89.1494584 102.37176,88.9605032 102.768476,88.7016973 C102.763999,88.8978167 102.773849,89.0975181 102.805193,89.3016973 C102.981611,90.4264734 103.801909,91.5360256 104.932954,91.8467719 C106.836834,92.3706525 107.99564,91.0139361 108.477431,89.3688614 C109.290566,91.3219958 110.965193,92.8569211 112.912954,91.4590107 C115.767879,89.410951 113.358924,84.3772196 111.735342,82.0712495 C114.222208,81.0584137 116.114446,78.7667719 116.688476,75.9360256 C117.0637,74.0858764 116.710864,72.1443838 115.778626,70.6757271 C118.157133,70.3605032 119.966088,67.3139361 118.852058,65.0993092 L118.852058,65.0993092 Z" id="Fill-2791"></path>
                <g id="Group-3" transform="translate(0.000000, 38.507463)">
                    <path d="M46.5434916,78.7253006 C42.5297603,78.1826141 37.8076707,74.6721663 34.4028946,72.6867932 C31.2658797,70.859032 28.1906558,68.9282857 25.1682678,66.9187335 C18.6757304,62.6005245 12.5870737,57.7503753 6.42677521,52.980823 C6.47065581,52.8939573 6.50020805,52.7945544 6.49662596,52.6718678 C6.40976029,49.6020171 6.31841701,46.5321663 6.23065581,43.4623156 C12.5557304,48.5855991 19.1817006,53.3641066 25.7181185,58.2097782 C32.8742379,63.5157484 39.9211036,69.4754499 47.538417,74.0936588 C47.6593125,74.1661962 47.7837901,74.1778379 47.9011036,74.159032 C47.7685663,76.1193305 47.4148349,77.8960469 46.5434916,78.7253006 L46.5434916,78.7253006 Z M1.68319313,21.9438081 C1.12438716,20.9354499 1.19334238,19.3987335 1.47722298,18.3223156 C2.1819991,15.6438081 4.38408865,14.9811215 6.83871551,15.040226 C7.23274536,15.0500768 7.33483492,14.5288827 7.0303573,14.3309723 C6.97841701,14.2969424 6.92110357,14.2781365 6.86737223,14.2476887 C6.8619991,14.2226141 6.85931253,14.198435 6.84767074,14.1724648 C5.50886477,11.2530618 8.65483492,7.5079872 11.5563275,7.28589765 C14.2205066,7.08171854 15.5476707,8.9560469 17.1273722,10.6727633 C17.2482678,10.8053006 17.4103573,10.838435 17.5625961,10.8097782 C17.7417006,11.1509723 18.2208051,10.8876887 18.159014,10.5464947 C17.8912528,9.0599275 18.4249842,7.20350959 20.118417,6.85336033 C21.7643872,6.5121663 22.597223,7.7641066 23.2258797,9.02500213 C23.3834916,9.34112153 23.9422976,9.28112153 24.0076707,8.92291257 C24.0381185,8.75276332 24.0425961,8.5879872 24.0354319,8.42589765 C24.1231931,8.33097227 24.1518498,8.18052451 24.0434916,8.0721663 C24.0130439,8.04082302 23.9924469,8.0041066 23.9655812,7.97097227 C23.9064767,7.74350959 23.8133424,7.52947974 23.6888648,7.32888272 C23.4667752,5.94888272 24.8288648,3.83276332 25.5085663,3.1638081 C26.7605066,1.93336033 28.4342379,1.45156929 30.1536409,1.46142004 C33.2055812,1.47933048 36.4993125,3.07873347 36.7482678,6.33753944 C36.4652827,6.62858421 36.4706558,7.21336033 36.9605066,7.29037526 C37.0831931,7.31007675 37.2094618,7.34231556 37.3348349,7.37365884 C37.357223,7.37813645 37.37782,7.38530063 37.4002081,7.3879872 C39.9802081,8.08559914 42.9363275,11.3148529 39.8682678,13.3253006 C39.4357304,13.0467932 38.7363275,13.3181365 38.6718498,13.8957484 C36.9058797,14.4966439 34.9930439,14.1088827 33.3587155,13.1542559 C33.3067752,13.1247036 33.2557304,13.1103753 33.2046857,13.099629 C32.8025961,12.8229126 32.197223,13.1264947 32.3217006,13.6987335 C32.8688648,16.2223156 30.9425961,17.9981365 28.4109543,17.1957484 C26.8599095,16.7023156 25.8202081,15.3939573 24.9605066,14.0972409 C24.6739394,13.6647036 23.8240886,13.6405245 23.7255812,14.2593305 C21.7670737,15.8515693 20.3405066,15.9366439 19.4467752,14.5136588 C19.2614021,14.2870917 18.9712528,14.4187335 18.8691633,14.6354499 C18.8342379,14.5853006 18.8046857,14.5315693 18.7679692,14.4832111 C18.3918498,13.9942559 17.6521483,14.2673902 17.7658797,14.9050021 C18.1464767,17.0264947 18.9408051,19.9781365 16.0894618,20.7733603 C13.7808051,21.4181365 11.7828946,19.6870917 10.4906558,17.9775394 C10.3097603,17.7375394 10.0151334,17.7482857 9.83065581,17.8844051 C9.55662596,17.8647036 9.27632745,18.0223156 9.29871551,18.3536588 C9.36319313,19.3217185 9.67304387,20.24142 8.86080507,21.02142 C8.05125283,21.7987335 6.75722298,21.5632111 5.97453641,20.880823 C5.64677521,20.5951514 5.05752148,20.9694797 5.3342379,21.3760469 C5.35841701,21.4109723 5.38976029,21.439629 5.41573044,21.4736588 C4.37244686,22.4363454 2.7622976,23.8897782 1.68319313,21.9438081 L1.68319313,21.9438081 Z M44.0002081,37.5957484 C44.8097603,41.2441066 45.6130439,44.8933603 46.4154319,48.5426141 C46.6822976,49.7569424 48.2431931,53.7035096 47.7811036,54.8005245 C46.6679692,57.4450021 44.6324469,54.2650021 43.3724469,53.1697782 C31.7987155,43.1076887 21.1294618,32.140226 9.84767074,21.780823 C10.3169245,21.2838081 10.6742379,20.5611215 10.7700588,19.8473902 C12.3515513,21.6554499 14.6369245,22.8626141 17.0709543,21.8193305 C19.2900588,20.8673902 20.1793125,17.9381365 19.4055812,15.6966439 C20.8617006,17.3506738 23.4085663,17.700823 24.5494618,15.8685842 C26.0969245,17.8655991 28.3473722,19.4076887 31.0088648,18.6500768 C32.7282678,18.160226 34.0563275,16.4847036 33.9282678,14.7948529 C35.4228946,15.6563454 37.2882678,15.8632111 38.9646857,15.4181365 C40.6599095,22.8070917 42.3587155,30.1951514 44.0002081,37.5957484 L44.0002081,37.5957484 Z M48.0963275,64.0888827 C46.516626,62.4133603 43.7055812,60.9858976 42.2503573,59.8763454 C38.1631931,56.760823 34.0697603,53.6533603 29.977223,50.5458976 C22.0831931,44.5521663 14.2652827,38.3703753 6.06767074,32.7930618 C6.12319313,29.4097782 6.17692447,25.920823 5.41393939,22.7650021 C5.60020805,22.5187335 5.76587969,22.2536588 5.89752148,21.9697782 C6.77244686,22.6772409 8.01901402,22.8429126 9.05602895,22.3441066 C15.3945364,29.5082857 22.4834916,36.0787335 29.45782,42.6124648 C32.9279692,45.8632111 36.4249842,49.0861962 39.9685663,52.2572409 C42.256626,54.3061962 45.1509543,57.5694797 48.2718498,58.2303753 C48.2852827,60.1853006 48.1993125,62.1375394 48.0963275,64.0888827 L48.0963275,64.0888827 Z M6.05334238,36.7557484 C6.03095432,35.7464947 6.04080507,34.7085842 6.05602895,33.6581365 C11.9879692,38.5154499 47.3458797,66.1745544 48.0094618,65.738435 C48.0085663,65.7438081 48.0085663,65.7482857 48.0085663,65.7536588 C47.8661782,65.9381365 47.8769245,66.1799275 47.9745364,66.3653006 C47.9611036,66.6187335 47.9467752,66.8712708 47.9333424,67.1247036 C47.8688648,68.3569424 48.016626,70.6575394 47.9575215,72.9241066 C41.6861782,67.4694797 34.4494618,62.8727633 27.7348349,57.9832111 C20.6100588,52.7945544 13.4870737,47.5781365 6.20826775,42.6053006 C6.15364089,40.6557484 6.0981185,38.7053006 6.05334238,36.7557484 L6.05334238,36.7557484 Z M49.4512528,57.3581365 C50.1954319,55.5805245 48.9712528,52.9620171 48.6067752,51.2560469 C47.716626,47.078435 46.8121483,42.9044051 45.8843872,38.7357484 C44.1085663,30.7557484 42.3014021,22.7829126 40.419014,14.8279872 C41.1318498,14.4330618 41.7676707,13.900226 42.256626,13.2187335 C43.3903573,11.640823 42.9864767,10.0423156 41.7945364,8.63903198 C40.859611,7.53933048 39.599611,6.24709168 38.1363275,6.08052451 C38.1488648,1.46500213 32.1864767,-0.71559489 28.177223,0.208584215 C25.899014,0.733360334 23.8921483,2.25664392 23.1193125,4.52321108 C22.9661782,4.9718678 22.8040886,5.69097227 22.7799095,6.40022601 C21.8915513,5.79485287 20.7014021,5.53515138 19.7593125,5.80739018 C18.4258797,6.19336033 17.4954319,7.4318678 17.2805066,8.76888272 C15.7205066,6.51306183 12.5028946,5.34977824 9.92558119,6.34201705 C7.25692447,7.36918123 4.54707372,11.078435 5.90647671,13.8885842 C4.6822976,13.6629126 3.3381185,14.1294797 2.33334238,14.8548529 C0.64259611,16.0763454 -0.110538218,18.1826141 0.0130438717,20.2217185 C0.111551334,21.8488827 0.654237902,23.8279872 2.53125283,24.0760469 C3.38558119,24.1888827 4.13781999,23.9211215 4.74677521,23.4438081 C3.9981185,27.7145544 4.62767074,32.4751514 4.72349163,36.7557484 C4.84170059,42.0617185 4.9742379,47.3685842 5.17483492,52.6718678 C5.18558119,52.9494797 5.33961104,53.1276887 5.53304387,53.2244051 C5.53931253,53.2306738 5.54110357,53.2387335 5.54737223,53.2458976 C11.5760289,59.2745544 18.4608051,64.4175394 25.5739394,69.0975394 C29.2124469,71.4912708 32.9485663,73.739032 36.759014,75.8488827 C39.7330439,77.4966439 43.3625961,80.279032 46.8739394,80.1241066 C47.4318498,80.0999275 47.6243872,79.598435 47.4748349,79.2124648 C49.3858797,77.9067932 48.9121483,74.6641066 49.0330439,72.5067932 C49.2999095,67.718435 50.4515513,62.0838081 49.4512528,57.3581365 L49.4512528,57.3581365 Z" id="Fill-2681"></path>
                    <path d="M43.9625961,43.2975394 C43.8309543,42.6635096 42.9408051,42.4548529 42.5136409,42.9151514 C42.0497603,43.1855991 41.5867752,43.4560469 41.1228946,43.7264947 C41.3234916,41.5297782 41.3458797,39.3572409 41.1757304,37.1309723 C41.1067752,36.2345544 40.0894618,36.0205245 39.5736409,36.6966439 C38.418417,38.2109723 37.2631931,39.7253006 36.1088648,41.239629 C36.3515513,36.1942559 38.6754319,31.4211215 38.5903573,26.2835096 C38.5814021,25.7130618 37.8587155,25.1524648 37.3294618,25.559032 C34.456626,27.7673902 33.2369245,31.080823 31.1736409,33.8820171 C31.1449842,29.040823 33.8118498,24.480823 33.5969245,19.5464947 C33.5646857,18.8023156 32.6718498,18.398435 32.1202081,18.9348529 C29.737223,21.2506738 27.6721483,23.8047036 26.1219991,26.760823 C25.6912528,27.578435 25.3043872,28.4148529 24.9614021,29.2727633 C24.457223,28.420226 24.2494618,27.4942559 24.339014,26.4948529 C24.0031931,24.3679872 23.9825961,22.1435096 23.776626,19.9978379 C23.7291633,19.5017185 23.1479692,18.9688827 22.6455812,19.3485842 C20.4936409,20.9757484 19.2076707,22.8393305 18.5951334,25.4847036 C18.4634916,26.0506738 19.2873722,26.2772409 19.4646857,25.7238081 C20.056626,23.8745544 20.9333424,22.5348529 22.3222976,21.419032 C22.3751334,24.2229126 22.2408051,27.4441066 22.9697603,29.9641066 C23.2428946,30.9061962 23.4524469,31.6145544 24.5324469,31.6557484 C25.8112528,31.7050021 26.1891633,30.4235096 26.7085663,29.498435 C28.2802081,26.6981365 29.7470737,24.180823 31.7808051,21.8282857 C31.2533424,26.7053006 28.7458797,31.2133603 29.6611036,36.2632111 C29.778417,36.9097782 30.6864767,37.0897782 31.1082678,36.6455991 C33.4500588,34.1829126 34.5882678,30.7673902 36.8306558,28.2715693 C36.3524469,33.4754499 33.9219991,38.3363454 34.4637901,43.6727633 C34.5533424,44.5485842 35.5267752,44.7823156 36.0479692,44.1017185 C37.2175215,42.5757484 38.3870737,41.0497782 39.556626,39.5238081 C39.5852827,41.4500768 39.4787155,43.3575394 39.2234916,45.299032 C39.1455812,45.8864947 39.8360289,46.2500768 40.3205066,46.1345544 C41.238417,45.9169424 41.9127454,45.6447036 42.5369245,45.2121663 C42.6273722,46.1641066 42.577223,47.1169424 42.3533424,48.0724648 C42.1840886,49.1067932 43.719014,49.5769424 43.957223,48.5148529 C44.3637901,46.7050021 44.3387155,45.1136588 43.9625961,43.2975394" id="Fill-2682"></path>
                </g>
                <path d="M90.4025328,47.3303376 C90.0146088,48.6505194 87.5017158,49.3099213 86.3834199,49.462886 C84.6663567,49.6971562 82.8342255,49.5710637 81.0951134,49.5938017 C81.0847779,49.4697763 81.0799547,49.3457509 81.0696193,49.2224145 C81.2205169,49.1059684 81.2894199,48.8772104 81.1164733,48.7332031 C81.0744425,48.6987515 81.0282775,48.6739465 80.9828015,48.6470743 C80.9152765,48.5457868 80.7974524,48.5003109 80.6858295,48.5106463 C80.5294196,48.4603471 80.3654304,48.4272737 80.2007522,48.3831757 C79.9175608,48.3073824 79.5317039,48.2860225 79.281586,48.1337468 C79.2044146,48.0862037 79.1362006,48.0992953 79.076944,48.1309907 C79.0101081,48.0276362 78.9019304,47.9490867 78.7393193,47.9428855 C76.9381944,47.8705373 74.8373414,47.7086152 73.0424179,48.0613986 C72.9149473,47.8739824 72.5855909,47.9036107 72.5773225,48.1888692 C72.5538955,49.0329312 72.5463161,49.8797492 72.5456271,50.7272563 C70.6749102,50.8409463 68.7545832,51.0021794 66.923141,50.5150351 C64.5136025,49.873548 60.3959583,46.5207272 64.9380451,45.4472182 C66.6668218,45.0386233 68.8159068,45.3486869 70.6039401,45.3025219 C72.702726,45.2487775 74.8008228,45.1957222 76.8996087,45.1419778 C78.7875514,45.0937457 80.676183,45.0455136 82.5648147,44.9972815 C84.3507809,44.9518055 86.4729938,44.5445887 88.2307098,44.8512071 C89.2732124,44.4460574 89.881626,44.7885054 90.0559507,45.8778621 C90.6995048,46.3677625 90.8145729,46.8514617 90.4025328,47.3303376 L90.4025328,47.3303376 Z M80.7754034,64.5678052 C80.7609338,65.5531184 80.7788485,66.5432547 80.6355303,67.5209885 C80.6334632,68.0887494 80.5135719,68.628949 80.2751675,69.1436545 C79.9492562,70.5961301 79.0810782,71.1507994 77.6782128,70.821443 C78.9226013,70.3088045 79.897579,68.6847605 80.0843061,67.2185043 C80.4377786,64.4458469 79.9106705,61.3769065 79.7907793,58.5897795 C79.6502171,55.3230875 79.5296369,52.0557065 79.4014772,48.7890145 C79.5082769,48.8324234 79.6157656,48.8710091 79.7046505,48.9068387 C79.9313414,48.9998577 80.1904168,49.1335296 80.4488031,49.2182803 C80.5535357,52.7171755 80.7650679,56.2098694 80.7926291,59.7122097 C80.8050317,61.3307415 80.8002085,62.9492734 80.7754034,64.5678052 L80.7754034,64.5678052 Z M76.4565623,69.9828933 C75.7330807,69.3923944 75.010288,68.8025846 74.2874954,68.2120858 L74.0814754,66.3386127 C74.0201517,65.5352036 74.0125723,64.7242151 73.9774318,63.9187388 C73.8975043,62.1038334 73.8134426,60.2889279 73.730759,58.4733334 C73.5826175,55.2162879 73.4868423,51.9413275 73.1402601,48.6973735 C74.8587014,49.0157054 76.8410412,48.8792774 78.5698178,48.8055512 C78.6952213,52.066731 78.8282041,55.3279107 78.9405161,58.5897795 C79.0321571,61.2349663 80.4432908,69.3875712 76.4565623,69.9828933 L76.4565623,69.9828933 Z M62.0565209,20.1859944 C62.5657142,11.4490919 63.8810728,-1.31312478 75.1598076,-1.98768531 C79.761151,-2.26260835 84.605033,-0.162444412 87.1696033,3.73608825 C89.5371109,7.33489279 89.8692235,11.9196995 89.9305472,16.1069358 C90.0676642,25.4205565 89.2931943,34.6955915 90.3921974,43.980273 C89.7272833,43.8500463 88.9466121,43.9086138 88.2307098,43.9161932 C84.0345161,43.9602911 79.8355662,44.1284145 75.6400616,44.2352141 L69.345082,44.3957582 C67.4137305,44.4453683 64.8946362,44.0464199 63.0494134,44.5569912 C62.7965393,44.6265833 62.5850071,44.6899741 62.4044812,44.7602551 C62.5726045,36.5745768 61.576956,28.4095694 62.0565209,20.1859944 L62.0565209,20.1859944 Z M91.936314,45.5436824 C91.8798135,45.2170821 91.7737028,44.9614519 91.6365858,44.7512977 C91.570439,42.8750686 91.4560599,40.8947959 90.9854523,39.1095188 C90.7339563,34.7431346 90.7608285,30.3691711 90.8352438,25.9862503 C90.9234396,20.8336827 91.3079185,15.4792293 90.5561866,10.3569791 C89.3710547,2.27810043 83.1215511,-3.69579109 74.6561265,-3.01089511 C66.2182631,-2.32875525 62.6201476,5.73634281 61.6251881,13.1516854 C60.2257678,23.5753337 59.9577351,35.1303696 61.6451699,45.5636643 C61.601761,45.738678 61.5762669,45.946076 61.5728218,46.2092856 C61.4963394,51.3956156 68.7807663,52.4160693 72.5490723,51.2605657 C72.5697432,56.0817097 72.907368,60.9386834 73.1499066,65.7336443 C73.2153644,67.0228197 73.3793536,68.6199916 74.0339323,69.6997019 C75.1033071,73.1352063 79.6102534,72.8864664 80.9538622,69.4881696 C81.9040348,67.0868995 81.5278243,64.037941 81.5085315,61.5333164 C81.4795922,57.8270231 81.4196466,54.0979919 81.1509248,50.3965219 C83.5556401,50.3682716 86.6859041,50.8657514 88.9052703,50.057519 C90.338453,49.5359232 92.2126151,47.1505008 91.936314,45.5436824 L91.936314,45.5436824 Z" id="Fill-2646" transform="translate(76.219708, 34.547575) rotate(-55.000000) translate(-76.219708, -34.547575) "></path>
                <g id="Group-4" transform="translate(57.313433, 66.268657)">
                    <path d="M24.5815231,34.0568031 C21.255553,39.7066539 18.9065977,31.0765046 18.5277918,28.8368031 C18.03615,25.9371016 16.9749559,18.9323255 20.85615,17.6678479 C20.8794336,17.7242658 20.9062992,17.7806837 20.9537619,17.8344151 C24.2752544,21.5785942 27.4964485,29.1027733 24.5815231,34.0568031 L24.5815231,34.0568031 Z M21.7158515,17.0723255 C21.495553,16.8475494 21.2313739,16.8815792 21.0442097,17.0266539 C21.0245082,17.0230718 21.0065977,17.0176986 20.9833141,17.0194897 C16.5280903,17.3884449 16.817344,22.8529225 17.0501798,26.212027 C17.2606276,29.2281464 17.8006276,37.1185942 22.2200306,37.433818 C25.8289858,37.692624 26.518538,32.4797882 26.6483888,29.9078479 C26.8901798,25.1015792 25.0740604,20.4887434 21.7158515,17.0723255 L21.7158515,17.0723255 Z" id="Fill-2778"></path>
                    <path d="M29.299135,54.130833 C29.2839112,53.9239673 29.1737619,53.7197882 28.9489858,53.6517285 C26.5310753,52.9174001 21.7265977,52.9397882 19.8898813,51.0815792 C18.2528664,49.4248628 18.9916724,46.2771016 18.6925679,44.19143 C18.5358515,43.1015792 18.3182395,42.0600867 17.6125679,41.1851613 C16.7412246,40.1060569 15.1946574,39.8365046 14.0152544,39.1621763 C14.6340604,38.9499375 14.3331649,37.9460569 13.6400306,38.0866539 C12.3549559,37.2484449 11.0698813,36.4111315 9.78480669,35.5729225 C9.80361266,34.1579972 9.8215231,32.7430718 9.84032907,31.3281464 C9.89406042,30.7657583 10.0480903,30.2105345 10.1206276,29.6499375 C10.3104783,28.1741166 10.4331649,26.652624 9.95137385,25.2197882 C8.7092843,21.5230718 4.38391116,20.9553106 4.33107534,16.4669524 C4.61853803,14.5979972 5.24182161,12.9090419 7.12600072,11.8603852 C8.19883654,11.2621763 9.60212012,11.2415792 10.5630156,10.41143 C11.2418216,9.82486283 11.5848067,9.06814641 11.8122694,8.22277327 C12.3003291,6.40844492 11.419135,1.22247477 14.9340604,1.87889268 C15.2546574,1.93889268 15.3934634,1.51889268 15.1265977,1.38098223 C26.0618216,0.964564319 31.7689858,15.5884449 34.0857022,24.530236 C36.0818216,32.2388927 38.557941,50.0347136 29.299135,54.130833 L29.299135,54.130833 Z M24.8268962,54.9887434 C13.8952544,54.9144151 6.56629922,40.4624748 3.737344,31.5797882 C0.564508179,21.6171016 -0.833402269,5.68038521 11.5597321,1.83322103 C11.6618216,1.90486283 11.7970455,1.93441506 11.9636127,1.8878479 C12.1158515,1.8439673 12.2618216,1.81799715 12.4122694,1.78038521 C12.2895828,1.88426581 12.1686873,1.99799715 12.0504783,2.13142999 C9.64600072,4.83948969 12.6406276,7.74635536 8.35823952,10.2233703 C6.87167236,11.0839673 5.58659773,11.2576986 4.47077684,12.7684449 C3.36838878,14.2603852 2.82480669,16.193818 3.45435893,17.9562061 C3.49555296,18.070833 3.57256788,18.1335195 3.65943355,18.1711315 C3.71495594,19.1266539 3.98003057,20.0400867 4.58361266,20.9347136 C6.34600072,23.5442658 8.36450818,22.6478479 9.15794101,27.1621763 C9.47137385,28.9469524 8.6215231,30.8499375 8.4934634,32.6293404 C8.26600072,35.7815792 9.5654037,39.2678479 12.8286873,39.2965046 C13.5370455,40.0648628 14.5803291,40.3111315 15.5913739,40.9774001 C18.3800306,42.8159076 17.2319709,46.3971016 17.7486873,49.1857583 C18.5824186,53.6884449 24.1042097,54.1012807 28.0552544,54.5696389 C27.0880903,54.8427733 26.0224186,54.9976986 24.8268962,54.9887434 L24.8268962,54.9887434 Z M33.8689858,18.5597882 C30.7257022,10.0371016 23.5060007,-2.98648046 12.559135,0.615310587 C12.437344,0.519489692 12.2788365,0.463071781 12.0907768,0.48904193 C1.65704549,1.92545984 -0.789521672,13.6684449 0.202717134,22.4409822 C1.37047833,32.7690419 5.87585146,43.3765046 13.2083888,50.853221 C19.1098813,56.872027 28.8916724,59.2603852 34.3821201,51.3744151 C40.5540604,42.5105345 37.3086873,27.8848628 33.8689858,18.5597882 L33.8689858,18.5597882 Z" id="Fill-2779"></path>
                    <path d="M15.1668962,7.76963895 C14.9868962,7.02725089 15.1060007,6.24008671 15.5098813,5.58277327 C15.6504783,6.35381805 15.5752544,7.08277327 15.1668962,7.76963895 L15.1668962,7.76963895 Z M15.9021201,4.43023596 C15.6916724,4.13740014 15.1319709,4.29769865 15.2716724,4.69531059 C15.3030156,4.7839673 15.3262992,4.87083298 15.3531649,4.95769865 C14.3206276,6.0036688 14.0994336,7.48217626 14.698538,8.82008671 C14.8060007,9.06187775 15.1686873,9.07262402 15.33615,8.90157924 C16.4260007,7.79023596 16.8630156,5.76187775 15.9021201,4.43023596 L15.9021201,4.43023596 Z" id="Fill-2780"></path>
                    <path d="M18.9925679,7.80635536 C18.0200306,7.25560909 17.6743589,5.94456432 18.1668962,4.94963895 C18.778538,5.09560909 19.2182395,5.3239673 19.3382395,6.06098223 C19.4340604,6.65560909 19.2209261,7.24844492 18.9925679,7.80635536 L18.9925679,7.80635536 Z M19.9212246,5.2836688 C19.5701798,4.58426581 18.677344,3.87769865 17.8910753,4.31650462 C17.7889858,4.37292253 17.7468962,4.4839673 17.7460007,4.59411656 C16.7797321,6.04128074 17.5095828,8.06337029 19.0892843,8.70635536 C19.2334634,8.76545984 19.4618216,8.66963895 19.5271947,8.52904193 C19.9848067,7.53680312 20.4504783,6.34128074 19.9212246,5.2836688 L19.9212246,5.2836688 Z" id="Fill-2781"></path>
                    <path d="M17.9089858,11.7950121 C17.8400306,12.0600867 17.7460007,12.3179972 17.6242097,12.5624748 C17.4495828,12.9117285 17.2140604,13.210833 16.9552544,13.4929225 C16.6668962,12.6439673 16.8701798,11.7179972 17.4325679,11.0176986 C17.5695828,11.19143 17.857941,11.2093404 17.9797321,10.9944151 C17.9698813,11.013221 17.9537619,11.6239673 17.9089858,11.7950121 L17.9089858,11.7950121 Z M18.8510753,10.6487434 C18.7248067,10.132027 18.1480903,10.0057583 17.7424186,10.1687434 C17.6698813,10.1347136 17.5857022,10.1275494 17.5051052,10.1750121 C16.0454037,11.0418778 15.6477918,12.9717285 16.47615,14.4179972 C16.6176425,14.6642658 16.9257022,14.6687434 17.1245082,14.5012807 C17.7021201,14.0141166 18.1570455,13.4150121 18.4597321,12.7209822 C18.7042097,12.1603852 19.0024186,11.2711315 18.8510753,10.6487434 L18.8510753,10.6487434 Z" id="Fill-2782"></path>
                    <path d="M12.4104783,33.1397882 C11.398538,32.3947136 12.2170455,31.2287434 12.9092843,30.4603852 C12.9119709,30.4774001 12.9021201,30.490833 12.9083888,30.5078479 C13.1188365,31.0317285 13.498538,31.6218778 13.5245082,32.193221 C13.5522694,32.7878479 13.0803291,33.633221 12.4104783,33.1397882 L12.4104783,33.1397882 Z M13.3686873,30.2400867 C13.3176425,30.1845643 13.2504783,30.1684449 13.1815231,30.170236 C13.219135,30.130833 13.2558515,30.0923255 13.2907768,30.0574001 C13.4618216,29.8827733 13.2271947,29.5442658 13.0176425,29.7045643 C12.2242097,30.3099375 11.3143589,31.0576986 11.235553,32.1376986 C11.1800306,32.9042658 11.6071947,33.7523255 12.356747,34.0209822 C13.1376425,34.3012807 13.9042097,33.792624 14.1925679,33.0690419 C14.5982395,32.0481464 14.0537619,30.9860569 13.3686873,30.2400867 L13.3686873,30.2400867 Z" id="Fill-2783"></path>
                    <path d="M17.5006276,35.9015792 C16.8289858,35.4215792 15.3710753,35.1412807 14.6842097,35.690236 C14.5552544,35.793221 14.6062992,36.012624 14.7352544,36.0860569 C15.2197321,36.3636688 15.8698813,36.1612807 16.4107768,36.2759076 C16.9642097,36.393221 17.5731649,36.8042658 17.5525679,37.4454598 C17.5301798,38.1403852 16.697344,38.1824748 16.2236127,37.9191912 C15.6621201,37.6057583 15.3451052,36.9368031 15.0558515,36.3905345 C14.9071947,36.110236 14.4039112,36.3081464 14.5310753,36.6117285 C14.8830156,37.4490419 15.3110753,38.3705345 16.2307768,38.6965046 C16.976747,38.9606837 17.9242097,38.750236 18.2286873,37.9478479 C18.5098813,37.2072509 18.1194336,36.3439673 17.5006276,35.9015792" id="Fill-2784"></path>
                    <path d="M30.0943589,51.2409822 C29.3600306,49.930833 29.3707768,48.4791912 29.9680903,47.0866539 C30.4239112,47.6991912 30.8045082,48.2651613 30.857344,49.0800867 C30.9092843,49.8771016 30.63615,50.6642658 30.0943589,51.2409822 L30.0943589,51.2409822 Z M30.2743589,46.4284449 C30.1588365,46.3729225 30.017344,46.3997882 29.9098813,46.4687434 C29.8525679,46.4597882 29.7934634,46.4705345 29.7424186,46.5323255 C28.4268962,48.1227733 28.4824186,50.4475494 29.6483888,52.1096389 C29.7665977,52.2771016 30.0271947,52.4033703 30.2197321,52.2591912 C31.8845082,51.0099375 32.5409261,47.5048628 30.2743589,46.4284449 L30.2743589,46.4284449 Z" id="Fill-2785"></path>
                    <path d="M31.0274933,44.8156091 C30.7248067,44.5442658 30.5340604,44.2200867 30.3746574,43.8699375 C30.7364485,43.9362061 31.0964485,44.0060569 31.4510753,44.1762061 C31.9749559,44.4269524 32.4137619,44.7842658 32.7997321,45.2078479 C32.4254037,45.7711315 31.3660007,45.1191912 31.0274933,44.8156091 L31.0274933,44.8156091 Z M32.4594336,43.9559076 C31.7036127,43.4275494 30.4919709,42.8884449 29.5597321,43.1606837 C29.297344,43.2376986 29.3062992,43.6030718 29.5597321,43.6836688 C29.6474933,43.7123255 29.73615,43.730236 29.8248067,43.7517285 C29.9143589,44.5371016 30.4704783,45.2624748 31.1233141,45.6771016 C31.7501798,46.0765046 32.737941,46.3774001 33.3074933,45.7272509 C33.9495828,44.9956091 33.0424186,44.3633703 32.4594336,43.9559076 L32.4594336,43.9559076 Z" id="Fill-2786"></path>
                    <path d="M29.3027171,26.7565046 C29.0474933,25.4759076 29.49615,24.1487434 30.4857022,23.2953106 C30.5188365,24.6323255 30.2439112,25.7965046 29.3027171,26.7565046 L29.3027171,26.7565046 Z M31.1206276,22.7356091 C31.0964485,22.6684449 31.0507768,22.6200867 30.9988365,22.5815792 C30.9433141,22.5179972 30.8609261,22.4839673 30.7660007,22.5081464 C30.6513739,22.5099375 30.5465977,22.5627733 30.497344,22.6657583 C28.8809261,23.6759076 28.1457022,25.6791912 28.7698813,27.5015792 C28.83615,27.6959076 29.0958515,27.8615792 29.2919709,27.7147136 C30.737344,26.6293404 31.7716724,24.5454598 31.1206276,22.7356091 L31.1206276,22.7356091 Z" id="Fill-2787"></path>
                    <path d="M32.8140604,27.09143 C32.6000306,26.9176986 32.1988365,27.0081464 32.218538,27.3376986 C32.2597321,28.0469524 32.6152544,28.6523255 32.5642097,29.3965046 C32.5176425,30.0797882 32.2794336,30.7030718 31.8889858,31.2394897 C31.3919709,29.9418778 31.5289858,28.5788927 32.0770455,27.27143 C32.175553,27.0359076 31.815553,26.9221763 31.6874933,27.1075494 C30.6325679,28.6254598 30.6603291,30.5553106 31.4340604,32.19143 C31.5513739,32.4394897 31.8943589,32.4368031 32.0716724,32.273818 C32.8104783,31.5959076 33.2904783,30.7209822 33.4292843,29.7233703 C33.5439112,28.9039673 33.5080903,27.653818 32.8140604,27.09143" id="Fill-2788"></path>
                </g>
            </g>
        </g>
    </g>
</svg>