<?xml version="1.0" encoding="UTF-8" standalone="no"?>
<svg width="119px" height="92px" viewBox="0 0 119 92" version="1.1" xmlns="http://www.w3.org/2000/svg" xmlns:xlink="http://www.w3.org/1999/xlink">
    <!-- Generator: sketchtool 40.3 (33839) - http://www.bohemiancoding.com/sketch -->
    <title>12747D55-3709-4357-9B09-FE0491E040CF</title>
    <desc>Created with sketchtool.</desc>
    <defs></defs>
    <g id="Page-1" stroke="none" stroke-width="1" fill="none" fill-rule="evenodd">
        <g id="Desktop-HD" transform="translate(-933.000000, -1222.000000)" fill="#417505">
            <g id="icon-5" transform="translate(933.000000, 1222.000000)">
                <g id="Group-6" transform="translate(56.753846, 27.461538)">
                    <path d="M59.037376,49.494126 C58.3252067,50.1889029 57.4684067,50.5816029 56.4660606,50.6713106 C55.2330375,51.1372414 53.9121375,51.4603721 52.6269375,51.8036414 C52.6626375,49.1343798 49.4889991,47.1580644 47.089776,48.6428183 C46.0123683,49.3101337 45.316676,50.5660414 45.2425298,51.8173721 C45.221476,52.1633875 45.3139298,52.4984183 45.3056914,52.838026 C45.3029452,52.9899798 45.3120991,53.099826 45.328576,53.1812952 C45.2699914,53.1959414 45.2013375,53.2197414 45.1125452,53.2636798 C43.9673991,53.825726 41.9590452,53.8449491 40.5456914,54.0655568 C39.9305529,51.1903337 36.4859606,49.351326 33.6986144,49.9600568 C30.8160683,50.5898414 28.9935375,53.3643721 29.192176,56.2011491 C29.1875991,56.2011491 29.1830221,56.2002337 29.1784452,56.2011491 C20.1390221,57.8049029 11.0373529,60.1043491 2.17093752,62.4852644 C2.13889905,62.4944183 2.11692982,62.5108952 2.09129905,62.524626 C2.24599905,62.4449875 2.37140675,62.2948644 2.39337598,62.0596106 C2.65883752,59.2237491 2.55997598,56.2185414 2.27803752,53.3478952 C3.50831444,53.8687491 5.15600675,53.563926 6.24714521,52.9405491 C7.75661444,52.0791721 8.67474521,50.5092875 8.67016829,48.7663952 C8.66559136,47.0912414 7.8481529,45.3849644 6.48056829,44.4018414 C5.6942529,43.8370491 4.72211444,43.4946952 3.75089136,43.4855414 C3.27306059,43.4818798 2.77234521,43.556026 2.32289136,43.7162183 C2.02447598,43.8233183 1.66564521,44.0896952 1.31047598,44.2718568 C1.46059905,40.997526 1.37546829,37.6371491 1.17133752,34.3628183 C10.0432452,34.2401568 19.4057991,31.2349491 27.8291683,28.8027721 C37.5487221,25.9952875 47.1419529,23.1932952 57.1965375,21.8431029 C57.9865144,21.7369183 58.037776,20.5038952 57.1965375,20.5633952 C47.7744837,21.2325414 38.7112606,24.1160029 29.7084529,26.7935029 C25.1681452,28.1436952 20.6186837,29.4526952 16.0088067,30.5465798 C11.1371298,31.7027106 6.05491444,32.2336337 1.22259905,33.512426 C14.6512914,23.3452491 27.5518067,12.1720644 40.2793144,1.14625675 C41.1745606,2.26485675 42.5339067,3.14362598 43.5746991,4.0709106 C44.7116067,5.08332598 45.8146452,6.50217214 47.1392067,7.29306444 C45.6013606,8.11233367 45.2379529,10.3275644 46.2412144,11.7555644 C47.3030606,13.2668644 50.1947606,13.8124337 51.5248144,12.3670414 C54.2004837,14.8733644 56.3937452,17.7833721 57.9480683,21.1098798 C57.9434914,21.1437491 57.9297606,21.1693798 57.9315914,21.2069106 C58.1201606,27.1642337 58.4963837,33.1105721 59.0346298,39.0468414 C59.2598144,41.5302798 60.1568914,44.6673029 59.8850221,47.126026 C60.5166375,48.3132798 60.2337837,49.1032568 59.037376,49.494126 L59.037376,49.494126 Z M49.7901606,50.0634952 C49.1814298,49.779726 48.5324221,49.6561491 47.8834144,49.6634721 C48.3520914,49.3980106 48.9159683,49.2808414 49.5439221,49.4089952 C50.5206375,49.6094644 51.1147221,50.4507029 51.4653144,51.3367952 C51.0231837,50.7756644 50.3485452,50.3252952 49.7901606,50.0634952 L49.7901606,50.0634952 Z M32.119576,52.1112106 C32.7658375,51.5985952 33.5457452,51.2589875 34.4409914,51.195826 C36.558276,51.0475337 38.010076,52.2833029 39.0462914,53.8907183 C37.2338298,52.3537875 34.4657067,51.7944875 32.119576,52.1112106 L32.119576,52.1112106 Z M1.89174521,45.0178952 C2.72108367,44.7588414 3.48451444,44.4311337 4.47679136,44.7075798 C6.01097598,45.1359798 7.09753752,46.5090568 7.35018367,48.0533106 C7.58818367,49.5096875 7.0389529,50.9212106 5.76107598,51.7102721 C5.48920675,51.8787029 5.22649136,51.9903798 4.96560675,52.0736798 C6.12631444,49.3357644 3.98706059,46.7891644 1.89174521,45.0178952 L1.89174521,45.0178952 Z M47.9218606,7.78737214 C47.9712914,7.75533367 48.0079067,7.71597214 48.0362837,7.67386444 C48.2422452,9.01856444 48.2211914,10.3705875 48.2431606,11.7244414 C47.9401683,11.616426 47.6499914,11.4333491 47.3817837,11.1349337 C46.5075914,10.1609644 46.863676,8.4620106 47.9218606,7.78737214 L47.9218606,7.78737214 Z M61.0219298,45.5122029 C60.0699298,37.4321029 59.477676,29.3373568 59.1710221,21.2069106 C59.168276,21.1391721 59.1463067,21.0860798 59.1279991,21.0302414 C59.1389837,20.9277183 59.1334914,20.8206183 59.0831452,20.708026 C57.4455221,17.0052952 55.0014452,13.8847491 51.7261991,11.5020029 C51.6209298,11.3967337 51.4680606,11.3363183 51.3078683,11.3765952 C50.5361991,11.5669952 49.7123529,11.8644952 48.9370221,11.8434414 C49.1072837,10.2799644 48.8134452,8.74577983 48.4152529,7.2363106 C48.3621606,7.03584137 48.1378914,7.04774137 48.0390298,7.17314906 C48.0591683,7.0816106 48.0591683,6.98366444 48.0115683,6.88205675 C47.2948221,5.3497029 45.5198914,4.09837214 44.2401837,3.03194906 C43.1993914,2.16507983 42.0038991,1.04373367 40.6958144,0.531118289 C40.6619452,0.13658752 40.1172914,-0.197527864 39.7017067,0.137502905 C26.4213067,10.8584875 12.9294529,21.7259337 0.40058367,33.3183644 C0.368545209,33.3476568 0.345660593,33.381526 0.331014439,33.4163106 C0.296229824,33.4748952 0.26968367,33.5417183 0.263275978,33.6268491 C0.260529824,33.6744491 0.258699055,33.7238798 0.255037516,33.7723952 C-0.0195778682,33.8611875 -0.00127017589,34.2172721 0.223914439,34.3271183 C0.00513751642,37.8165644 -0.0882317143,41.4085337 0.104914439,44.8851644 C0.137868286,45.4829106 0.810675978,45.5982491 1.12282213,45.257726 C3.17786059,47.0161798 5.37386829,49.268026 3.94952982,52.1368414 C3.9330529,52.1707106 3.93030675,52.2027491 3.92206829,52.2357029 C3.33530675,52.2375337 2.74122213,52.1185337 2.09496059,52.005026 C1.97870675,51.8045568 1.72789136,51.7954029 1.59973752,51.9821414 C1.28667598,52.0773414 1.11549905,52.4508183 1.3864529,52.7455721 C1.40750675,52.7684568 1.43588367,52.7831029 1.4578529,52.8059875 C1.13197598,55.8359106 1.00748367,59.0461644 1.28942213,62.0596106 C1.33061444,62.4999106 1.72056829,62.6665106 2.02630675,62.5594106 C1.78189905,62.7644568 1.97779136,63.2303875 2.35950675,63.167226 C11.3998452,61.667826 20.6671991,59.823326 29.4612991,57.2272952 C29.6535298,57.1705414 29.7587991,57.0497106 29.8063991,56.9124029 C29.9574375,56.8501568 30.0791837,56.7201721 30.0782683,56.5325183 C30.0718606,55.1649337 30.5817298,53.742426 31.4907067,52.7080414 C32.8317452,52.7208568 34.1746144,52.8654875 35.4588991,53.2627644 C36.9665375,53.7286952 38.0521837,54.634926 39.4051221,55.360826 C39.6504452,55.4926414 39.985476,55.2949183 40.0028683,55.0431875 C40.0596221,55.0697337 40.1191221,55.0917029 40.1932683,55.087126 C41.9343298,54.9937568 44.0918914,55.0614952 45.7542298,54.5232491 C46.1505914,54.3941798 46.4865375,54.4198106 46.7373529,54.0133798 C47.1117452,53.4073952 46.5579375,52.7290952 46.5405452,52.100226 C46.5249837,51.5262798 46.6943298,50.9587414 47.0018991,50.4882337 C47.8330683,50.4122568 48.6642375,50.5742798 49.4038683,50.9843721 C50.2386991,51.4475568 50.5361991,52.2164798 51.2172452,52.790426 C51.3838452,52.9304798 51.6190991,52.9167491 51.7756298,52.8004952 C51.8744914,52.8837952 52.0081375,52.9295644 52.1729067,52.8902029 C54.1144375,52.4288491 59.7815837,52.2393644 61.0292529,50.4845721 C61.9904067,49.1334644 61.1931067,46.9658337 61.0219298,45.5122029 L61.0219298,45.5122029 Z" id="Fill-2618"></path>
                    <path d="M21.5322375,48.1961106 C21.350076,49.1398721 20.7660606,50.0790568 19.9760837,50.7006029 C20.5701683,49.6222798 20.2680914,47.7814414 19.6822452,46.9521029 C18.7146837,45.5836029 16.4124914,45.1039414 15.7396837,46.9868875 C15.6884221,47.1287721 15.9053683,47.2129875 15.9795144,47.0875798 C17.0221375,45.3080721 19.0725991,46.9841414 19.3041914,48.3865106 C19.3856606,48.8853952 19.3417221,49.3888568 19.1531529,49.8602798 C18.9883837,50.2712875 18.6734914,50.5605491 18.5673067,50.9916952 C18.5343529,51.1262568 18.5782914,51.2571568 18.6615914,51.350526 C18.2377683,51.4503029 17.7928914,51.4603721 17.3416067,51.3422875 C15.5813221,50.8836798 15.0275144,48.8469491 15.5767452,47.2615029 C16.0033144,46.0321414 16.9644683,45.1396414 18.0134991,44.4155721 C18.0821529,44.4860568 18.1691144,44.5391491 18.2652298,44.5473875 C20.2415452,44.734126 21.9679606,45.9497568 21.5322375,48.1961106 L21.5322375,48.1961106 Z M22.7277298,47.161726 C22.5473991,45.2412491 20.6983221,43.3381644 18.7403144,43.6493952 C18.6927144,43.5779952 18.6167375,43.5276491 18.5123837,43.5606029 C16.2376529,44.2572106 14.1597298,46.1584644 14.221976,48.7004875 C14.2787298,50.9642337 16.0957683,52.9075952 18.4290837,52.6082644 C20.9793452,52.2814721 22.9666452,49.6991721 22.7277298,47.161726 L22.7277298,47.161726 Z" id="Fill-2619"></path>
                    <path d="M40.4605606,36.8718875 C40.5374529,36.4617952 40.5539298,36.0425491 40.5218914,35.6892106 C40.437676,34.7701644 40.0046991,33.8328106 39.2330298,33.2945644 C38.0942914,32.4990952 36.5189144,32.6473875 35.6373991,33.6231875 C35.9641914,32.9906568 36.4191375,32.4350183 36.9555529,32.0587952 C38.4174221,32.0450644 39.7657837,32.3617875 40.5877991,33.7174721 C41.2139221,34.7491106 41.0821067,35.9418568 40.4605606,36.8718875 L40.4605606,36.8718875 Z M35.4167914,37.1108029 C35.0488067,36.3693414 35.0387375,35.4859952 35.2565991,34.6410952 C35.3847529,34.7280568 35.5907144,34.7271414 35.689576,34.5724414 C36.3367529,33.5554491 37.9780375,33.4858798 38.8119529,34.3106414 C39.2925298,34.785726 39.4765221,35.4722644 39.4746914,36.1322568 C39.4728606,36.7821798 39.1753606,37.3185952 39.0902298,37.9428875 C39.0847375,37.9822491 39.1002991,38.010626 39.1039606,38.046326 C37.8562914,38.6184414 36.0895991,38.4655721 35.4167914,37.1108029 L35.4167914,37.1108029 Z M41.8949683,33.988426 C41.2487067,32.0761875 38.8330067,30.4641952 36.8310606,31.2624106 C36.6571375,31.3319798 36.5674298,31.4921721 36.5555298,31.6514491 C34.7311683,32.5521875 33.7196683,35.2113798 34.3961375,37.1135491 C35.1073914,39.1118337 37.5240067,39.8487183 39.3794914,39.0843721 C41.3411606,38.2742568 42.5934067,36.0571952 41.8949683,33.988426 L41.8949683,33.988426 Z" id="Fill-2620"></path>
                    <path d="M46.4133067,41.7756029 C44.3491144,42.3522952 43.8538914,40.3521798 44.2731375,38.8646798 C44.3189067,38.8628491 44.3655914,38.8527798 44.4040375,38.8225721 C45.1519067,38.2220798 46.3016298,38.5754183 46.7895298,39.3342721 C47.0220375,39.6958491 47.1218144,40.1160106 47.1547683,40.5398337 C47.1767375,40.8144491 47.1291375,41.104626 47.1318837,41.3829029 C46.923176,41.5623183 46.6815144,41.699626 46.4133067,41.7756029 L46.4133067,41.7756029 Z M46.0672914,37.4650568 C46.1039067,37.4778721 46.1313683,37.463226 46.1624914,37.4595644 C47.0925221,37.6334875 47.8019452,38.1955337 47.9548144,39.2015414 C47.9776991,39.3516644 47.9786144,39.5063644 47.9694606,39.6610644 C47.7717375,39.105426 47.4641683,38.6019644 47.1208991,38.3136183 C46.4105606,37.7177029 45.4027221,37.6005337 44.6466144,38.0380875 C44.9871375,37.5355414 45.4759529,37.2517721 46.0672914,37.4650568 L46.0672914,37.4650568 Z M45.9693452,36.8892798 C44.4250914,36.2549183 43.353176,38.2550337 43.1700991,39.5795952 C42.9229452,41.3673414 44.174276,42.9079337 46.0242683,42.8630798 C47.7854683,42.8209721 49.0962991,41.1000491 49.0065914,39.402926 C48.9315298,37.9666875 47.5190914,36.2082337 45.9693452,36.8892798 L45.9693452,36.8892798 Z" id="Fill-2621"></path>
                    <path d="M54.7671067,27.7400106 C54.6709914,27.1376875 54.3551837,26.5555029 53.8819298,26.2186414 C53.4672606,25.9229721 52.8722606,25.7453875 52.3523221,25.8552337 C52.5033606,25.7032798 52.6717914,25.5687183 52.8539529,25.4607029 C52.8768375,25.4735183 52.8878221,25.4945721 52.9189452,25.5000644 C53.6869529,25.6428644 54.515376,25.9193106 54.7973144,26.7376644 C54.9108221,27.0662875 54.8870221,27.419626 54.7671067,27.7400106 L54.7671067,27.7400106 Z M51.7435914,27.383926 C51.7252837,27.205426 51.7417606,27.0305875 51.7802067,26.8612414 C51.8570991,26.8868721 51.956876,26.8420183 51.9504683,26.7449875 C51.9193452,26.2909568 52.7560067,26.5051568 52.9747837,26.5994414 C53.3262914,26.7504798 53.6366067,27.0177721 53.8068683,27.3637875 C54.0430375,27.8425337 53.9414298,28.2755106 53.7839837,28.716726 C53.7144144,28.740526 53.6457606,28.7670721 53.5716144,28.7789721 C52.7074914,28.9217721 51.8296375,28.2544568 51.7435914,27.383926 L51.7435914,27.383926 Z M55.8280375,26.9106721 C55.6687606,25.7874952 54.5455837,24.7412106 53.4004375,24.8592952 C53.3464298,24.7631798 53.2411606,24.6963568 53.0946991,24.7265644 C51.7499991,25.0030106 50.7009683,26.2525106 50.8803837,27.6603721 C51.0488144,28.9831029 52.4081606,29.9195414 53.7034298,29.7511106 C55.0380606,29.5771875 56.0156914,28.2334029 55.8280375,26.9106721 L55.8280375,26.9106721 Z" id="Fill-2622"></path>
                    <path d="M41.7439298,19.9500875 C41.8354683,19.3578337 41.5809914,18.7170644 41.3228529,18.1779029 C40.9237452,17.3439875 40.3964837,16.4633875 39.5387683,16.0377337 C38.9877067,15.7622029 38.4000298,15.7878337 37.8965683,16.0011183 C38.9748914,14.9850414 40.4385914,14.6930337 41.6020452,15.9471106 C42.6181221,17.0419106 42.841476,18.8488798 41.7439298,19.9500875 L41.7439298,19.9500875 Z M37.5349914,19.9656491 C37.2081991,19.5802721 37.0113914,19.1225798 36.927176,18.6447491 C37.022376,18.6584798 37.117576,18.6172875 37.1038452,18.4927952 C37.0324452,17.8263952 37.3665606,17.1307029 37.9789529,16.8139798 C38.7259067,16.4267721 39.4280067,16.8679875 39.8921067,17.4584106 C40.2436144,17.9051183 40.5273837,18.4397029 40.7305991,18.9697106 C40.8404452,19.2553106 40.9685991,19.6004106 40.8807221,19.9098106 C40.8157298,20.1386568 40.7013067,20.2228721 40.6765914,20.4691106 C40.6710991,20.5258644 40.6903221,20.5725491 40.7186991,20.6146568 C39.6339683,21.0329875 38.3121529,20.8828644 37.5349914,19.9656491 L37.5349914,19.9656491 Z M42.0890298,14.8275952 C40.7159529,13.6934337 37.4397914,13.5973183 37.022376,15.733826 C35.8076606,17.0373337 35.6447221,19.1546183 36.8100067,20.6027568 C38.2370914,22.3767721 41.0875991,22.2385491 42.615376,20.6714106 C44.2154683,19.0310414 43.7879837,16.2290491 42.0890298,14.8275952 L42.0890298,14.8275952 Z" id="Fill-2623"></path>
                    <path d="M28.8571452,16.5494337 C28.7061067,16.2208106 28.656676,15.8711337 28.6704067,15.5168798 C28.7198375,15.6468644 28.8910144,15.7356568 28.9953683,15.6010952 C29.3734221,15.1177721 30.0993221,15.3109183 30.4343529,15.7521337 C30.6458067,16.0294952 30.7254452,16.3810029 30.7702991,16.7206106 C30.8032529,16.9641029 30.7876914,17.2323106 30.834376,17.4776337 C30.0837606,17.8712491 29.1912606,17.2762491 28.8571452,16.5494337 L28.8571452,16.5494337 Z M29.0713452,13.9671337 C29.7743606,14.2454106 30.4306914,14.1657721 31.0211144,14.7781644 C31.4742298,15.2477568 31.6811067,15.9828106 31.5099298,16.6089337 C31.4742298,16.4377568 31.4330375,16.2720721 31.3854375,16.1311029 C31.2426375,15.7008721 31.0037221,15.2825414 30.6174298,15.0289798 C30.0050375,14.6262106 29.073176,14.6756414 28.6823067,15.3493644 C28.728076,14.877026 28.8800298,14.4019414 29.0713452,13.9671337 L29.0713452,13.9671337 Z M32.143376,14.8394952 C31.6865991,13.984526 30.3180991,12.9052875 29.2608298,13.2577106 C29.1756991,13.1680029 29.0200837,13.1442029 28.918476,13.2769337 C28.0369606,14.4284875 27.4794914,16.0587875 28.3921298,17.3650414 C29.0887375,18.3618952 30.5094144,18.8534568 31.5447144,18.0689721 C32.5205144,17.3293414 32.702676,15.8848644 32.143376,14.8394952 L32.143376,14.8394952 Z" id="Fill-2624"></path>
                    <path d="M19.5659914,24.932526 C19.3362298,24.1919798 19.4643837,22.1543337 20.683676,22.3703644 C20.743176,22.3813491 20.7916914,22.3557183 20.8319683,22.3200183 C21.540476,22.5085875 22.2041298,22.7685568 22.5528914,23.5091029 C22.6004914,23.6097952 22.6361914,23.7150644 22.6627375,23.8221644 C22.4293144,23.5017798 22.1437144,23.2326568 21.8086837,23.076126 C20.7633144,22.5891414 19.4396683,23.2637798 19.4973375,24.4867337 C19.5101529,24.7485337 19.8872914,24.7476183 19.9028529,24.4867337 C19.9742529,23.2363183 21.5230837,23.5155106 22.0475991,24.2560568 C22.3075683,24.6212952 22.3624914,25.0048414 22.3872067,25.3947952 C22.2837683,25.5549875 22.1620221,25.7032798 22.0173914,25.8268568 C21.0479991,26.6507029 19.8973606,25.9989491 19.5659914,24.932526 L19.5659914,24.932526 Z M23.575376,23.9841875 C23.373076,22.6321644 21.8791683,21.2892952 20.4676452,21.8211337 C20.4227914,21.8376106 20.3889221,21.8687337 20.3632914,21.9035183 C19.2986991,21.7460721 18.6506067,23.1914644 18.6158221,24.1581106 C18.5608991,25.694126 19.6447144,27.3290029 21.3400067,27.1248721 C21.8160067,27.0672029 22.2297606,26.8594106 22.5766914,26.5710644 C22.7149144,26.729426 23.0023452,26.7660414 23.1002914,26.5445183 C23.2128837,26.2900414 23.2604837,26.003526 23.2668914,25.7087721 C23.5387606,25.182426 23.6632529,24.5764414 23.575376,23.9841875 L23.575376,23.9841875 Z" id="Fill-2625"></path>
                    <path d="M26.1393683,39.188726 C26.2144298,38.0637183 25.6908298,36.8499183 24.7095375,36.3482875 C24.4806914,36.2311183 24.2381144,36.1789414 23.9955375,36.1606337 C24.7717837,35.8063798 25.6542144,36.0974721 26.1073298,37.0320798 C26.4240529,37.6856644 26.4130683,38.4948644 26.1393683,39.188726 L26.1393683,39.188726 Z M22.5464837,39.9311029 C22.0768914,39.3324414 22.1556144,38.5827414 22.3331991,37.8870491 C22.3359452,37.8806414 22.3432683,37.8788106 22.3450991,37.8705721 C22.6316144,36.5972721 24.1740375,36.5478414 24.8788837,37.4797029 C25.5910529,38.4207183 25.1278683,39.3837029 25.0253452,40.4098491 C25.0235144,40.4281568 25.0280914,40.4428029 25.0290067,40.4592798 C24.2005837,40.8712029 23.1295837,40.6753106 22.5464837,39.9311029 L22.5464837,39.9311029 Z M26.6785298,36.213726 C25.9205914,35.1839183 24.1950914,34.8131875 23.3071683,35.713926 C21.7857991,35.6132337 21.1514375,38.8445414 21.5349837,39.8844183 C22.1382221,41.5165491 24.301276,42.0419798 25.7091375,41.1632106 C27.3366914,40.1471337 27.8190991,37.760726 26.6785298,36.213726 L26.6785298,36.213726 Z" id="Fill-2626"></path>
                </g>
                <path d="M42.6755195,53.7098169 C42.6535367,53.7032298 42.6392001,53.6889577 42.61435,53.6845663 C40.8786643,53.4035161 39.6724774,54.0940652 39.1611383,56.1657123 C38.8753618,57.3217507 39.090411,58.4228965 39.3226641,59.5602714 C39.7412931,61.6110594 40.0519197,61.6560713 39.3714086,64.0482913 C38.324836,67.7293898 38.8170596,65.1263822 37.6787327,66.9444254 C35.7251305,70.0667172 36.4266687,76.5275775 40.3988657,77.1972674 C38.7233937,80.5852393 37.1702609,84.1247149 35.756671,87.6345484 C36.3855704,67.3703921 35.5836759,46.9602214 34.6059191,26.7410771 C36.9972658,23.9942508 39.2395117,21.0476154 41.4406594,18.0998822 C41.7694457,27.1516738 42.4738512,36.1705298 42.6401559,45.2365935 C42.6927234,48.0613672 42.6908119,50.886141 42.6755195,53.7098169 L42.6755195,53.7098169 Z M42.5952345,72.9716342 C41.9825833,74.0771713 41.3852245,75.2145462 40.8031581,76.3694868 C40.7983792,76.3683889 40.7964677,76.3650954 40.7916888,76.3639975 C39.9181113,76.0961216 38.8753618,74.525095 38.4022537,73.6314433 C37.1157818,71.2062878 37.850772,69.4541156 39.4144184,67.5131129 C40.2488092,66.4789361 40.6062687,67.0278622 41.2313449,65.5611316 C42.1832959,63.3259045 39.0435781,55.0349245 42.4690723,54.9207479 C42.5407554,54.9174544 42.6067038,54.8987909 42.6669175,54.8669531 C42.6229519,60.9018468 42.5120821,66.9356426 42.5952345,72.9716342 L42.5952345,72.9716342 Z M21.3369077,89.398797 C23.0486991,87.229441 23.603048,84.1225192 22.4752346,81.3548337 C21.991613,80.1669576 21.2566227,79.131683 20.3209199,78.3752628 C18.51833,76.9151193 16.0677253,76.9733055 14.3588013,75.4966943 C14.3396858,75.4802265 14.326305,75.4593673 14.3052779,75.4450952 C12.6020885,74.3593194 15.290681,67.5240914 15.1157743,65.3338762 C14.8988136,62.6013221 13.3820002,60.127861 11.2104815,58.9893882 C7.42179311,57.0011779 3.86057894,59.1266198 1.86970156,62.6452361 C1.86014382,61.2366917 1.84485144,59.8292452 1.84102834,58.4217986 C1.80853202,48.010866 2.32178269,37.528573 1.89741901,27.1297167 C1.94616349,27.1758265 2.00446571,27.2131535 2.07806031,27.231817 C6.75657436,28.4043232 11.5918354,28.7446574 16.4509907,28.6875691 C15.9587671,33.0076175 19.6002662,34.3766393 22.8403403,34.6412217 C25.8825692,34.8893363 27.4462155,36.3297184 28.6103484,39.5486211 C29.0299332,40.7112466 29.3491617,41.904612 30.0268055,42.9212231 C31.0504395,44.4571184 32.3063267,45.2442784 33.8441671,44.868813 C34.18729,59.6371211 34.2991156,74.4054292 34.6623097,89.1770308 C30.2275181,89.3285344 25.7831687,89.3647635 21.3369077,89.398797 L21.3369077,89.398797 Z M19.512335,89.1067683 C19.4158019,89.2033793 19.3574996,89.3076752 19.3192687,89.4141669 C13.6706439,89.458081 8.02393077,89.5239521 2.3953773,89.8467207 C2.13158366,81.419607 1.95954432,72.9902976 1.8830824,64.5587926 C3.42761329,61.4837085 6.26052762,59.1650446 9.49869015,59.9906295 C13.5330125,61.0182192 14.1294155,65.4206066 13.2587053,69.3146884 C12.8419878,71.1777436 11.1598255,75.8216585 13.7700444,76.4880548 C14.5853197,77.4113485 15.7083543,77.913067 16.9537279,78.4147855 C19.1472293,79.2974587 21.0157676,80.3975066 21.5156375,83.247531 C21.9285319,85.6079132 21.048264,87.5686773 19.512335,89.1067683 L19.512335,89.1067683 Z M33.8164497,43.5975001 C29.7419849,42.8333949 30.0583461,36.3824153 26.919584,34.1296225 C23.4396107,31.6320087 18.1130818,35.0496227 17.2844257,28.6765905 C22.6663894,28.5635117 28.0684245,27.9915307 33.3070221,27.5260414 C33.5258944,32.8824624 33.6864644,38.2399812 33.8164497,43.5975001 L33.8164497,43.5975001 Z M33.5536118,25.760695 C27.7931615,26.2426522 22.1235098,26.4896689 16.4443003,26.5215066 C17.4727132,25.4697642 20.3094506,24.8275206 21.2747824,24.6869956 C21.6379766,24.6332008 22.0069053,24.6804084 22.3710553,24.6233201 C23.3727065,24.4641316 24.2845149,24.1534394 25.0433995,23.3498115 C25.8108861,22.5374009 25.9590311,21.3583076 26.5076454,20.404274 C28.3207488,17.2589274 31.5569998,17.7738201 34.1289878,19.4886653 C33.9359214,21.5844652 33.7562359,23.6813629 33.5536118,25.760695 L33.5536118,25.760695 Z M3.93704087,18.9210757 C4.25913673,19.2262786 4.67107535,19.3997392 5.16712209,19.3843693 C7.46958181,19.3097154 7.65978085,16.0414093 10.345506,16.3136767 C11.546914,16.4355382 12.5399632,17.0887603 13.5291894,15.9063735 C14.169558,15.1411705 14.3243934,14.0850366 14.2632239,13.0651319 C21.1772935,13.0464684 28.1286382,12.5304779 34.9566882,11.8717666 C34.961467,11.8706687 34.9652901,11.8673751 34.970069,11.8662773 C34.6795137,13.9609793 34.4558625,16.0787363 34.2522827,18.2019825 C31.3849605,15.813056 27.1145619,15.5704307 25.2498467,19.5600257 C24.1162987,21.9862791 23.1739055,22.9479976 20.6755121,23.0358258 C19.6136471,23.0720549 18.4753202,22.8920072 17.4497746,23.3355395 C16.0619907,23.9360646 15.3212658,24.9691436 15.1692977,26.525898 C10.8721375,26.5237023 6.56541954,26.4018407 2.20613403,26.1460412 C2.17554926,26.1438455 2.15643378,26.1647046 2.12871633,26.1690961 C2.91914149,23.7779739 3.48591551,21.3681883 3.93704087,18.9210757 L3.93704087,18.9210757 Z M4.85076087,12.886182 C4.85649552,12.8356808 4.84884932,12.7928646 4.84502623,12.7467548 C4.85076087,12.7467548 4.85458397,12.7511462 4.86127439,12.7511462 C7.67316169,12.9663252 10.5041645,13.0563491 13.3428134,13.0673276 C13.095268,14.4418386 12.5399632,15.300359 10.9600687,15.1642254 C10.2958057,15.1071371 9.77777618,14.7415523 9.08388421,14.8842731 C8.60217408,14.9830798 8.17685462,15.2597385 7.79358922,15.5956813 C7.26791348,16.0567792 5.19006066,19.5457536 4.14635539,17.7496674 C4.41588367,16.1489988 4.6433579,14.5296668 4.85076087,12.886182 L4.85076087,12.886182 Z M3.18484668,7.13343637 C2.90289333,6.32431928 2.60755914,5.52069145 2.26539203,4.74560778 C12.2656561,5.60083466 22.7619669,4.9750589 32.7507616,4.18789885 C33.0202899,6.30126438 33.848946,8.52112158 34.7311255,10.345752 C27.3038052,10.9978762 19.8917773,11.229523 12.4682802,11.5105732 C11.9903931,6.62183723 6.58644657,6.24088251 3.18484668,7.13343637 L3.18484668,7.13343637 Z M3.24792776,3.01209912 C3.53179266,2.62785084 3.87587132,2.22274337 4.05077798,1.74956907 C13.9564204,2.70140694 24.2185665,2.00976004 34.1586168,1.39166924 C33.7963784,1.79787456 33.4532555,2.22384123 33.1416732,2.69921124 C32.9677223,2.66188426 32.7899483,2.72885325 32.7087075,2.90890101 C22.7409398,3.06589388 12.5237151,2.97587 2.58175324,3.88269593 C2.80253705,3.5917651 3.03001128,3.30742137 3.24792776,3.01209912 L3.24792776,3.01209912 Z M35.435531,10.0756803 C35.1134351,8.95367535 34.7636218,7.8426489 34.4577741,6.71295896 C34.1423686,5.5448442 33.9483465,4.31415186 33.5564791,3.17787481 C33.561258,3.1734834 33.5660369,3.17238555 33.5708158,3.16799414 C33.9856217,2.71677687 34.4166758,2.29959303 34.8630223,1.90217053 C34.902209,4.61386552 34.999698,7.4243672 35.435531,10.0756803 L35.435531,10.0756803 Z M36.0520052,12.2582105 C36.2355139,12.6446545 36.4104205,13.0365878 36.598708,13.420836 C36.886396,14.008187 37.1492339,14.6866597 37.5191184,15.2311944 C36.8844844,15.7680441 36.6914181,17.0668033 36.4390937,17.8374955 C36.0434033,19.0462308 35.6008799,20.2791189 35.2004105,21.526279 C35.6821207,18.4555863 36.0185531,15.3135333 36.0520052,12.2582105 L36.0520052,12.2582105 Z M39.9620769,14.8941537 C39.915244,14.8809795 39.8655438,14.8656096 39.8196666,14.8524353 C39.3111948,14.7152038 38.7874306,14.6207885 38.2636664,14.5593088 C38.0103863,13.9840342 37.6357229,13.4504781 37.334654,12.9268025 C36.9561675,12.2669934 36.5643001,11.6181627 36.1676539,10.9726256 C37.5764649,12.1385446 38.8227942,13.4405974 39.9620769,14.8941537 L39.9620769,14.8941537 Z M40.9943129,16.303796 C41.0526151,16.3883306 41.1147405,16.4651803 41.1730427,16.5497149 C40.998136,16.5200729 40.8088928,16.5826504 40.638765,16.7813617 C39.1162169,18.5653716 37.6567499,20.4481881 36.2957276,22.4155393 C36.399907,22.038976 36.5031306,21.6624127 36.6092215,21.2891429 C36.8816171,20.3307179 38.4481308,16.4410275 37.8603298,15.7493806 C38.0180325,15.9349176 38.3200571,15.820741 38.3802709,15.597877 C38.4280596,15.5418865 38.464379,15.471624 38.4796714,15.3892851 C38.8514675,15.5221252 39.221352,15.6615524 39.5855019,15.8295238 C40.0471408,16.0425072 40.5020893,16.3147745 40.9943129,16.303796 L40.9943129,16.303796 Z M42.5187726,17.1776863 C42.5178168,17.1667078 42.5101706,17.1623164 42.508259,17.1513379 C42.6382443,16.9778772 42.6793426,16.7264691 42.5350207,16.452006 C41.0812884,13.6832227 38.8486001,11.4293321 36.3033738,10.0449405 C36.2536736,7.12245784 35.9325335,4.1615504 35.756671,1.24016564 C36.2488947,0.974485397 36.1810347,-0.0300493863 35.5330199,0.000690475955 C25.0567804,0.493626124 14.4696711,0.155487639 4.01828166,0.970093988 C3.94468706,0.894342185 3.85006543,0.850428096 3.73537254,0.904222855 C3.66560103,0.937158422 3.61016613,0.98546392 3.54804082,1.0271823 C3.52796957,1.03596512 3.51172141,1.04913935 3.49547325,1.06231358 C3.09882701,1.34775515 2.8302545,1.7923853 2.54352228,2.23481975 C2.14400872,2.85071485 1.74162784,3.46002283 1.37556637,4.10226638 C1.36027399,4.12861483 1.35740666,4.15386543 1.34784892,4.18021389 C1.24271378,4.29658622 1.18058846,4.46345976 1.22455407,4.66107316 C1.58010202,6.24527392 2.12584901,7.77787562 2.67350755,9.28632457 C3.04243634,10.30074 3.28807027,11.6818381 4.1826748,12.2044158 C4.26104827,12.2494277 4.34228907,12.2088072 4.37191806,12.1154898 C4.73893531,10.9583535 3.99821041,9.53883059 3.63310471,8.44207621 C6.57497729,8.15224323 10.4611546,7.7185916 11.5191965,11.548998 C9.30084492,11.6346305 7.08249331,11.7257522 4.86127439,11.8366353 C4.61277313,11.8487117 4.4885225,12.0529122 4.47992053,12.2658955 C4.27251756,12.2033179 4.04791066,12.2944397 3.99438731,12.6150125 C3.23741425,17.2216004 2.12584901,21.7732958 1.25035997,26.3546331 C1.24653687,26.3721987 1.25035997,26.3864708 1.24844842,26.4040364 C1.1681634,26.4775925 1.10221499,26.5742035 1.08787838,26.7257071 C-0.874325779,47.5322025 0.288851258,69.2378387 0.943556493,90.1134988 C0.950246911,90.3506348 1.03435503,90.5262912 1.14904792,90.6591313 C1.1939693,90.9182244 1.36218553,91.1487734 1.66898901,91.1696326 C12.6947986,91.9205635 23.9088957,91.1948832 34.94044,90.7787972 C34.9585997,90.7776993 34.9738921,90.7700144 34.991096,90.7678187 C35.207101,90.9522579 35.5253737,90.958845 35.7222632,90.6009451 C38.6517107,85.2774597 41.5448388,79.4775064 43.7641462,73.7170758 C43.9065565,73.3460018 43.8052444,73.0078633 43.6102665,72.7948799 C45.1557532,54.712156 44.6558834,35.1616036 42.5187726,17.1776863 L42.5187726,17.1776863 Z" id="Fill-2680"></path>
            </g>
        </g>
    </g>
</svg>