<?xml version="1.0" encoding="UTF-8" standalone="no"?>
<svg width="87px" height="82px" viewBox="0 0 87 82" version="1.1" xmlns="http://www.w3.org/2000/svg" xmlns:xlink="http://www.w3.org/1999/xlink">
    <!-- Generator: sketchtool 40.3 (33839) - http://www.bohemiancoding.com/sketch -->
    <title>D4258608-EE6B-4EE4-ACD0-EE888FC2465F</title>
    <desc>Created with sketchtool.</desc>
    <defs></defs>
    <g id="Page-1" stroke="none" stroke-width="1" fill="none" fill-rule="evenodd">
        <g id="Desktop-HD" transform="translate(-956.000000, -924.000000)" fill="#417505">
            <g id="icon-3" transform="translate(956.000000, 924.000000)">
                <path d="M8.58016451,11.6804396 C9.16416451,12.0564396 9.95116451,11.4214396 9.49716451,10.7964396 C9.38316451,10.6394396 9.25416451,10.4984396 9.11716451,10.3674396 C8.23716451,6.82943959 8.96716451,1.41843959 13.8291645,1.75343959 C18.7981645,2.09443959 18.7381645,8.35943959 15.8561645,11.0114396 C15.4841645,11.3544396 15.5461645,11.8384396 15.7981645,12.1304396 C15.8351645,12.2154396 15.8891645,12.2994396 15.9821645,12.3734396 C18.7421645,14.5894396 21.7681645,16.5854396 24.7761645,18.4724396 C24.7461645,18.4944396 24.7131645,18.5134396 24.6831645,18.5364396 C23.6131645,19.0314396 22.8951645,19.8944396 22.4201645,20.9644396 C19.7761645,18.8884396 17.0721645,16.8784396 14.4081645,14.8284396 C14.0681645,14.5674396 13.6981645,14.6804396 13.4761645,14.9274396 C13.2441645,14.8554396 12.9571645,14.9594396 12.9261645,15.2604396 C12.4491645,19.9614396 7.16016451,23.0794396 3.38016451,19.2924396 C2.12316451,18.0334396 1.40416451,16.1254396 1.67816451,14.3384396 C2.15616451,11.2184396 6.07116451,10.0704396 8.58016451,11.6804396 L8.58016451,11.6804396 Z M25.5241645,19.8084396 C25.8031645,19.6964396 25.9311645,19.4874396 25.9661645,19.2624396 C32.6201645,15.9634396 41.0841645,17.5264396 48.1421645,18.5894396 C56.1501645,19.7944396 64.5051645,21.4364396 71.9081645,24.8124396 C76.1761645,26.7584396 79.2851645,29.4524396 81.4271645,32.6074396 C80.3351645,31.9924396 79.0731645,31.6144396 77.6871645,31.5694396 C71.1911645,31.3624396 65.0401645,39.2344396 61.2021645,43.6154396 C55.7551645,49.8294396 50.5731645,57.2714396 47.7571645,65.0994396 C46.5171645,68.5494396 45.5591645,73.8534396 47.6731645,77.1684396 C41.8861645,74.0634396 37.3281645,68.7714396 33.8051645,63.3004396 C29.7851645,57.0554396 26.8831645,50.1064396 25.1811645,42.8804396 C24.4211645,39.6544396 23.9051645,36.3734396 23.6311645,33.0714396 C23.4001645,30.2734396 21.9351645,21.2454396 25.5241645,19.8084396 L25.5241645,19.8084396 Z M84.1641645,38.3884396 C84.2081645,38.5344396 84.2511645,38.6814396 84.2921645,38.8284396 C84.4801645,39.5154396 84.6051645,40.2244396 84.6521645,40.9384396 C84.6601645,41.0734396 84.7351645,41.1574396 84.8301645,41.2024396 C86.5031645,50.8744396 82.5581645,62.1264396 75.9421645,70.1114396 C70.2931645,76.9284396 62.5081645,81.4984396 53.4491645,79.3784396 C52.6851645,79.1994396 51.9461645,78.9704396 51.2171645,78.7184396 C51.1821645,78.6424396 51.1341645,78.5704396 51.0591645,78.5084396 C42.1611645,71.1524396 54.2281645,54.8834396 59.2481645,48.3804396 C62.3981645,44.3004396 65.9351645,40.5214396 69.8061645,37.1164396 C71.6741645,35.4724396 73.9301645,33.3954396 76.5001645,33.0454396 C80.4451645,32.5064396 83.1091645,35.1084396 84.1641645,38.3884396 L84.1641645,38.3884396 Z M1.16316451,19.0614396 C4.54616451,24.5764396 13.9211645,22.7274396 13.8301645,16.1484396 C16.4381645,18.2134396 19.2121645,20.1574396 22.1111645,21.7934396 C21.1391645,24.9254396 21.7461645,29.2934396 21.8851645,31.8614396 C22.2851645,39.2614396 23.9451645,46.5864396 26.7531645,53.4424396 C31.8321645,65.8464396 41.5171645,79.8724396 56.0051645,81.3724396 C70.8461645,82.9094396 81.7411645,67.9164396 85.4721645,55.2334396 C89.6741645,40.9454396 84.4661645,27.9534396 70.3331645,22.4904396 C61.5141645,19.0814396 51.8421645,17.2304396 42.4691645,16.2484396 C36.9201645,15.6674396 30.2971645,14.8954396 25.4611645,18.0004396 C22.8321645,15.8214396 20.0941645,13.6644396 17.2471645,11.7794396 C20.9051645,8.36643959 20.1431645,1.12643959 14.5841645,0.113439586 C9.02616451,-0.898560414 6.43116451,5.07243959 7.81616451,9.58643959 C5.82316451,8.87943959 3.07116451,9.53643959 1.62316451,10.8394396 C-0.629835494,12.8684396 -0.297835494,16.6794396 1.16316451,19.0614396 L1.16316451,19.0614396 Z" id="Fill-2615"></path>
                <path d="M63.5201645,54.9924396 C65.6581645,52.7664396 72.8101645,47.6384396 72.6471645,54.1814396 C72.5121645,59.6314396 66.8271645,65.2644396 61.6561645,66.7294396 C61.6011645,66.6644396 61.5341645,66.6084396 61.4431645,66.5714396 C55.9321645,64.3464396 61.0671645,57.5484396 63.5201645,54.9924396 L63.5201645,54.9924396 Z M60.0831645,67.4084396 C60.1161645,67.4584396 60.1651645,67.4984396 60.2381645,67.5104396 C60.2961645,67.5204396 60.3521645,67.5204396 60.4101645,67.5284396 C60.6361645,67.6054396 60.8651645,67.6814396 61.1201645,67.7404396 C61.3181645,67.7864396 61.4761645,67.7204396 61.5931645,67.6074396 C66.1161645,67.6034396 69.3951645,63.8394396 71.6671645,60.1244396 C73.0861645,57.8054396 76.6791645,50.5434396 71.7431645,49.5014396 C64.7421645,48.0234396 51.8311645,64.0814396 60.0831645,67.4084396 L60.0831645,67.4084396 Z" id="Fill-2616"></path>
                <path d="M70.2891645,54.1744396 C71.3541645,55.8274396 67.8741645,59.7044396 66.9881645,60.7054396 C65.5161645,62.3684396 63.8941645,63.9594396 61.6031645,64.1374396 C61.5861645,64.1284396 61.5771645,64.1144396 61.5591645,64.1064396 C58.4571645,62.7234396 68.0811645,51.9544396 70.2891645,54.1744396 L70.2891645,54.1744396 Z M61.1391645,65.0874396 C61.4241645,65.2064396 61.6591645,65.0714396 61.7801645,64.8664396 C65.0441645,65.3854396 67.8261645,61.5924396 69.5081645,59.2624396 C70.3301645,58.1244396 73.3281645,53.2874396 70.1391645,53.2014396 C68.3561645,51.9284396 64.3611645,55.8994396 63.3411645,56.9454396 C61.7861645,58.5404396 57.3381645,63.5044396 61.1391645,65.0874396 L61.1391645,65.0874396 Z" id="Fill-2617"></path>
            </g>
        </g>
    </g>
</svg>