<?xml version='1.0' encoding='iso-8859-1'?>
<!DOCTYPE svg PUBLIC '-//W3C//DTD SVG 1.1//EN' 'http://www.w3.org/Graphics/SVG/1.1/DTD/svg11.dtd'>
<svg version="1.1" xmlns="http://www.w3.org/2000/svg" viewBox="0 0 295.85 295.85" xmlns:xlink="http://www.w3.org/1999/xlink" enable-background="new 0 0 295.85 295.85">
  <g>
    <circle cx="96.27" cy="27.597" r="27.59"/>
    <path d="m284.023,184.295h-20.18v-26.981c0-6.546-5.306-11.852-11.852-11.852h-2.648v-27.176c0-6.546-5.306-11.852-11.852-11.852h-10.481v-27.639c0-4.694-3.806-8.5-8.5-8.5-4.694,0-8.5,3.806-8.5,8.5v27.639h-10.481c-6.546,0-11.852,5.306-11.852,11.852v27.176h-2.648c-6.546,0-11.852,5.306-11.852,11.852v26.981h-20.179c-4.694,0-8.5,3.806-8.5,8.5v93.333c0,4.694 3.806,8.5 8.5,8.5 4.694,0 8.5-3.806 8.5-8.5v-84.833h114.025v84.833c0,4.694 3.806,8.5 8.5,8.5s8.5-3.806 8.5-8.5v-93.333c0-4.695-3.806-8.5-8.5-8.5z"/>
    <path d="m166.896,99.835c-2.344-6.494-9.505-9.858-16-7.518l-35.033,12.636c0,0-7.08-16.254-10.431-24.89-2.161-5.569-5.499-10.871-11.499-13.162l-31.05-11.856c-9.616-3.672-20.388,1.147-24.06,10.763l-33.96,88.941c-2.366,4.845-2.041,10.804 1.366,15.456l31.406,42.882-32.525,60.672c-3.914,7.301-1.168,16.393 6.134,20.308 2.256,1.209 4.682,1.782 7.074,1.782 5.35,0 10.528-2.87 13.232-7.916l36.989-69c2.729-5.089 2.294-11.292-1.118-15.95l-19.733-28.805c-1.033-1.508 0.047-3.557 1.875-3.557 0.66,0 1.288,0.287 1.72,0.787l35.429,41.014-25.177,62.382c-3.103,7.687 0.303,16.689 7.953,19.882 1.893,0.79 3.853,1.164 5.78,1.164 5.936,0 11.557-3.548 13.915-9.39l28.654-71c2.039-5.055 1.178-10.817-2.252-15.054l-37.157-45.891 .733-1.92-9.371-2.923c-7.875-2.024-14.191-7.775-16.947-15.413-0.3-0.833-0.619-2.237-0.712-3.118l-5.305-50.67 17.256,49.58c1.377,3.954 4.639,6.955 8.694,7.998l48.369,12.432c1.391,0.358 2.786,0.466 4.141,0.354 5.319-0.439 10-4.282 11.195-9.849 1.422-6.621-2.932-13.13-9.491-14.815l-41.5-10.667-15.625-44.896 23.049,34.417 37.443,9.624c4.727,1.215 8.887,3.751 12.079,7.297l16.942-6.111c6.495-2.343 9.86-9.506 7.518-16z"/>
  </g>
</svg>
