<?xml version="1.0" encoding="UTF-8" standalone="no"?>
<svg width="48px" height="86px" viewBox="0 0 48 86" version="1.1" xmlns="http://www.w3.org/2000/svg" xmlns:xlink="http://www.w3.org/1999/xlink">
    <!-- Generator: sketchtool 40.3 (33839) - http://www.bohemiancoding.com/sketch -->
    <title>99FAC349-F02C-47AD-93DE-9C7C14A3A4A7</title>
    <desc>Created with sketchtool.</desc>
    <defs></defs>
    <g id="Page-1" stroke="none" stroke-width="1" fill="none" fill-rule="evenodd">
        <g id="Desktop-HD" transform="translate(-981.000000, -1065.000000)" fill="#417505">
            <g id="icon-4" transform="translate(981.000000, 1065.000000)">
                <path d="M30.1351203,83.505988 C25.3671755,83.4593714 10.5952214,84.5165143 6.88791109,80.2383188 C7.36585132,76.6097474 13.7640306,75.3330557 16.7347893,74.4202737 C19.2145134,73.6563639 21.7318835,72.9962136 24.201787,72.2142587 C24.2934467,73.2277925 24.3540076,74.2548602 24.4620352,75.2593714 C24.5438743,76.0308 25.7665502,76.0608752 25.7943755,75.2593714 C26.1495571,64.7571158 25.5586789,53.8338075 24.4096582,43.3541083 C24.5929778,43.3766647 24.7697502,43.4097474 24.9547065,43.4292963 C25.8336582,43.5195218 26.6651433,43.5420782 27.476987,43.5360632 C27.9549272,54.0142587 28.436141,64.4789203 29.2398007,74.9480933 C29.3134559,75.9255369 30.961695,75.943582 30.9109548,74.9480933 C30.8733088,74.2232812 30.8536674,73.4759128 30.8291157,72.7345594 C30.894587,72.7541083 30.9518743,72.7826797 31.028803,72.7901985 C34.0830375,73.0563639 40.7807479,73.1586196 43.0624214,75.6097474 C50.3755617,83.4608752 32.7425134,83.5300481 30.1351203,83.505988 L30.1351203,83.505988 Z M21.8562789,40.7826797 C4.89594787,35.8954617 2.21980994,19.4774166 1.65675707,5.38869475 C6.1218973,9.68643912 15.7003433,11.024785 21.3390559,11.4698978 C28.3935847,12.0262887 38.0718743,11.8187699 43.7531433,7.21425866 C43.8906329,13.6488451 44.0559479,20.0172662 42.6957824,26.4082436 C40.6858145,35.8518526 33.8604352,44.2398226 21.8562789,40.7826797 L21.8562789,40.7826797 Z M1.57982833,3.0759128 C1.57982833,3.0759128 1.57491799,3.068394 1.57491799,3.06538648 C3.67163523,1.50598799 19.1866881,1.90147671 21.420895,1.99320603 C28.9239019,2.29696543 36.0520858,3.92252934 43.3930513,5.15410829 C43.5092628,5.17365716 43.6140168,5.17064964 43.7122237,5.15711581 C43.7138605,5.23380754 43.7154973,5.31200302 43.7171341,5.39019851 C37.8901916,9.23982257 30.9224122,10.2097474 23.8138697,9.99170227 C17.4877088,9.79771731 6.10880305,8.53606318 1.59619615,3.63681505 C1.59128581,3.45034889 1.58473868,3.26087521 1.57982833,3.0759128 L1.57982833,3.0759128 Z M47.2918651,77.0308 C44.864518,72.0894466 35.9473318,71.4774166 31.028803,71.1360632 C30.9289594,71.1300481 30.8520306,71.1511008 30.7701916,71.1661384 C30.5295847,62.0864391 30.8078375,52.0909504 28.3821272,43.512003 C46.7108076,42.5480933 47.5864858,16.8428301 45.329364,4.34057445 C45.2295203,3.78418348 44.5731709,3.68643912 44.1246927,3.91049927 C44.0428536,3.83982257 43.9430099,3.7796722 43.8186145,3.73606318 C35.9653364,0.961627085 26.9826789,0.131551897 18.6039939,0.0864391151 C14.2403341,0.0623789647 4.11192948,-0.648899231 0.684508794,2.46237896 C0.573207645,2.56313084 0.520830633,2.72553686 0.5682973,2.86538648 C0.576481208,2.88794287 0.583028334,2.91049927 0.591212242,2.93455942 C0.272039829,2.98568724 0.0101547712,3.2759128 0.219662817,3.6277925 C0.286770863,3.73907069 0.37515707,3.83831881 0.447175461,3.94658949 C-1.86068661,19.1917023 4.60787431,40.2954617 23.5077916,43.2323038 C23.167341,52.5270406 23.3342927,62.1300481 24.1379525,71.4593714 C18.6056306,71.8729053 1.41123983,74.993206 5.64232029,80.8383188 C5.76016856,80.9977173 5.92712029,81.062379 6.10225592,81.0864391 C8.04184213,83.9405745 13.5921686,84.1270406 16.8673686,84.5150105 C24.6551755,85.4368151 36.0520858,86.912003 43.4863479,83.743582 C46.7108076,82.3691459 48.9499249,80.4052361 47.2918651,77.0308 L47.2918651,77.0308 Z" id="Fill-2759"></path>
                <path d="M18.9297134,36.9420782 C12.8196076,33.781176 8.97317086,28.8864391 6.44434328,23.1390707 C8.7652996,24.9330557 12.8948996,25.105988 15.6774283,25.4849354 C23.6403709,26.5721534 31.6262283,26.4789203 39.5973548,25.6037323 C37.3762421,34.4488451 29.822495,42.581176 18.9297134,36.9420782 L18.9297134,36.9420782 Z M23.751672,20.5285444 C29.1890605,20.9029805 34.716472,22.9420782 40.0818421,23.1135068 C40.0540168,23.3180181 40.0196444,23.5225293 39.985272,23.7285444 C34.5266053,24.3511008 29.0924904,24.6308 23.5863571,24.4142587 C19.2554329,24.2443339 8.89133178,24.6969654 5.73398006,20.9601233 C11.7540628,20.5766647 17.7054007,20.1135068 23.751672,20.5285444 L23.751672,20.5285444 Z M40.9264214,22.4052361 C40.8838651,22.2533564 40.772564,22.193206 40.6498053,22.1736572 C40.6007019,22.1074917 40.5417778,22.0473414 40.4615755,22.0007248 C36.3745318,19.6819278 29.7504766,19.4187699 25.018541,19.0458376 C18.4108536,18.5255369 11.7147801,18.749597 5.28386512,20.274409 C5.187295,19.9977173 4.6618881,20.024785 4.69953408,20.3465895 C4.70280764,20.3646346 4.70771799,20.3841835 4.70935477,20.4022286 C4.70280764,20.4037323 4.69626052,20.4052361 4.68971339,20.4067399 C4.32962144,20.4969654 4.38854558,21.0443339 4.77973638,21.0202737 C4.79283063,21.0202737 4.8042881,21.0187699 4.81574558,21.0187699 C6.2282881,29.7826797 14.9883433,39.8924542 25.1805824,40.4668902 C34.8899709,41.0142587 43.2555617,30.7526045 40.9264214,22.4052361 L40.9264214,22.4052361 Z" id="Fill-2760"></path>
            </g>
        </g>
    </g>
</svg>