<?xml version="1.0" encoding="UTF-8" standalone="no"?>
<svg width="127px" height="120px" viewBox="0 0 127 120" version="1.1" xmlns="http://www.w3.org/2000/svg" xmlns:xlink="http://www.w3.org/1999/xlink">
    <!-- Generator: sketchtool 40.3 (33839) - http://www.bohemiancoding.com/sketch -->
    <title>C6E1B01B-8A5A-4D6E-8325-0372D2B84553</title>
    <desc>Created with sketchtool.</desc>
    <defs></defs>
    <g id="Page-1" stroke="none" stroke-width="1" fill="none" fill-rule="evenodd">
        <g id="Desktop-HD" transform="translate(-920.000000, -1372.000000)" fill="#417505">
            <g id="icon-6" transform="translate(920.000000, 1371.000000)">
                <path d="M103.004673,25.1143548 C102.776073,28.2216215 101.935051,31.1021696 100.633066,33.8971104 C100.314155,33.1294659 99.7948656,32.4257919 99.0159323,31.822777 C97.5662508,30.6995326 95.3395175,30.0795845 93.6828731,29.3928437 C91.0403323,28.299703 88.3874434,27.0137104 85.6696434,26.1011919 C85.7392582,24.1406882 85.8559101,21.586577 87.8164138,20.8744363 C88.8258286,20.5075474 90.6452212,20.933703 91.785399,20.90454 C93.3300953,20.8631474 94.8682064,20.7549622 96.404436,20.5922141 C99.8701249,20.2253252 103.380029,19.9873178 103.004673,25.1143548 L103.004673,25.1143548 Z M97.576599,40.9648956 C96.1636064,43.2179696 94.5822212,45.1747104 92.3338508,46.5481919 C92.0281101,43.8887178 89.2576286,40.9093919 87.9151916,39.0514289 C85.9386953,36.3157548 83.4447916,32.3147845 80.5567175,30.3636882 C80.6395027,30.3505178 80.7166434,30.3110067 80.7683842,30.2338659 C81.7975545,28.6844659 81.9396064,28.06734 83.9480879,27.6703474 C85.8305101,27.2987548 86.2594879,27.6073178 87.9039027,28.3128733 C89.9660064,29.1962289 92.0365768,30.0598289 94.1015027,30.9365993 C96.6527916,32.0193919 97.1382138,31.9657696 98.4053916,34.7353104 C99.7337175,37.6374956 99.1466953,38.4615845 97.576599,40.9648956 L97.576599,40.9648956 Z M85.2679471,52.5905696 C83.1973768,53.8934956 80.9678212,54.9395993 78.6423101,55.7044215 C76.6366508,56.3638808 76.3327916,56.6366956 74.4560138,55.470177 C72.2716138,54.1117474 72.6742508,52.6065622 72.477636,50.2838733 C72.2339842,47.4174363 72.0759397,44.5397104 71.9705768,41.6648067 C71.8915545,39.5142733 70.8576805,33.4587252 72.4324805,31.8707548 C75.5961916,31.1510882 78.0298879,30.2178733 80.8822138,32.4888215 C82.9565471,34.1407622 84.8935323,36.9686289 86.4372879,39.0721252 C87.6715397,40.7541696 89.292436,42.6187178 90.0591397,44.5622882 C91.6913249,48.6987252 88.2491545,50.7137919 85.2679471,52.5905696 L85.2679471,52.5905696 Z M63.4041916,53.6470215 C58.6355768,52.1851104 60.6374731,48.0449104 61.7767101,44.4682141 C62.6177323,41.830377 63.5396582,39.221703 64.5368434,36.6393696 C65.8341249,33.2799845 67.5011175,32.9629548 70.496436,33.1708585 C69.9724434,35.5725696 70.6450731,38.8980882 70.7024582,40.8012067 C70.8351027,45.216103 70.5303027,50.4541474 71.6375545,54.7561548 C68.8529619,54.7523919 66.080599,54.4673474 63.4041916,53.6470215 L63.4041916,53.6470215 Z M59.5791397,47.3064289 C59.3439545,48.1126437 59.0654953,48.9066289 58.888636,49.6714511 C56.7776138,49.0430363 54.6618879,48.3986289 52.720199,47.3384141 C51.6684508,46.765503 50.6176434,46.0740585 49.7719175,45.2132808 C47.7041693,43.1088437 48.8311768,41.5095845 50.4501916,39.7061845 C52.1077768,37.8585696 54.5612286,36.3637326 56.4878656,34.7917548 C58.5142212,33.1388733 59.8115027,31.6092289 62.9912064,31.9704733 C63.4888582,32.0269178 64.2057027,32.4295548 64.7541545,32.5603178 C63.6280879,34.1708659 63.0899842,36.8124659 62.4248805,38.629977 C61.3787768,41.4888882 60.4314508,44.3835474 59.5791397,47.3064289 L59.5791397,47.3064289 Z M45.579036,30.3110067 C45.4275768,27.4191696 45.4482731,18.9873104 51.2159545,23.2676808 C54.2413768,25.5132289 55.6713027,29.4850363 59.1906138,31.0504289 C58.841599,31.2771474 58.4540138,31.5631326 58.003399,31.9262585 C55.9845693,33.5565622 53.9779693,35.2019178 51.9685471,36.8435104 C50.9572508,37.66854 49.5113323,38.5387252 48.4134879,39.5688363 C46.0795101,38.4098437 45.6919249,32.4700067 45.579036,30.3110067 L45.579036,30.3110067 Z M92.0807916,3.56480668 C98.1918434,5.40395483 99.9764286,13.8085326 101.584155,19.12654 C101.239843,19.0268215 100.864488,18.9543845 100.446799,18.92334 C98.0798953,18.7483622 95.4834508,19.4445104 93.1080805,19.5790363 C92.1532286,19.6317178 90.9801249,19.5188289 89.8117249,19.4492141 C90.0440879,17.5348067 90.1146434,15.6457993 89.8540582,13.7135178 C89.5097471,11.1641104 85.4212879,1.56196964 92.0807916,3.56480668 L92.0807916,3.56480668 Z M102.450577,19.4877845 C102.449636,19.478377 102.453399,19.4708511 102.451517,19.4614437 C101.48914,13.5780511 98.3338953,2.40675483 90.6828508,1.89028816 C88.6546138,1.75199927 87.2689027,3.26000668 86.9227101,5.16971038 C86.6197916,6.8395252 87.2792508,8.46230297 87.7656138,10.0201696 C88.7355175,13.135903 89.016799,16.1735548 88.5868805,19.40594 C87.7674953,19.3984141 86.9876212,19.4492141 86.3375693,19.6477104 C84.3911768,20.240377 84.5840286,23.8302437 84.7834656,25.8302585 C82.0957693,25.2366511 81.2904953,27.3288585 80.1954731,29.9920956 C80.1766582,30.0363104 80.1710138,30.0786437 80.1728953,30.1172141 C80.1456138,30.1002808 80.1192731,30.0814659 80.0929323,30.0654733 C77.7241471,28.6722363 74.8699397,30.128503 72.4381249,31.0748882 C72.2358656,30.8707474 71.8943768,30.7954882 71.6121545,31.0419622 C71.182236,31.4191993 70.8849619,31.9234363 70.6808212,32.5048141 C68.8520212,31.7936141 66.6563323,30.6459104 65.2038286,32.0052808 C65.1643175,31.9629474 65.1163397,31.924377 65.0486064,31.8999178 C62.6722953,31.01374 61.8199842,30.15014 60.5791471,30.4097845 C60.5114138,30.2799622 60.3985249,30.1680141 60.2226064,30.1106289 C56.9497693,29.0457104 48.4520582,14.2977178 45.2149693,22.2855474 C43.8132656,25.7446511 44.0851397,30.3260585 44.8142138,33.8886437 C45.2215545,35.8754882 45.7389619,39.3251845 47.9384138,40.0514363 C47.6072731,40.4211474 47.3241101,40.8096733 47.1369027,41.2264215 C44.7869323,46.4588215 55.0221916,49.8294956 58.7183619,50.8925326 C58.6939027,51.8699622 59.0005842,52.7768363 60.0137619,53.5717622 C63.0278953,55.9358437 68.4456212,56.0571993 72.1154508,56.011103 C74.5886582,60.524777 82.7326508,55.7730956 85.9424582,53.7439178 C87.848399,52.5388289 91.4467323,50.4428585 92.2087323,48.0298585 C92.2548286,48.0195104 92.2990434,48.0185696 92.3451397,47.9978733 C95.8757397,46.4324808 101.26054,40.3552956 101.011243,35.6130215 C101.15894,35.5800956 101.295347,35.48414 101.386599,35.3006956 C103.067703,31.924377 106.915332,21.9892141 102.450577,19.4877845 L102.450577,19.4877845 Z" id="Fill-2758" transform="translate(74.374330, 29.888532) rotate(182.000000) translate(-74.374330, -29.888532) "></path>
                <path d="M113.391398,87.2366032 C112.350939,88.8114032 111.126095,90.2620254 109.741324,91.5244995 C104.767628,96.0598106 98.3291984,97.9281217 92.0055391,95.0428699 C90.852191,94.5160551 89.7327095,93.8904625 88.6442725,93.1999588 C90.4006354,88.1876921 93.1899317,83.7219958 96.0883539,79.3023958 C97.4571317,77.2139514 98.8804725,75.0276699 100.529591,73.0634032 C106.155221,76.9392551 110.07905,81.2309143 113.391398,87.2366032 L113.391398,87.2366032 Z M107.063976,67.8215958 C113.273806,65.0671069 116.693398,69.8018551 117.028302,75.2788477 C115.824154,73.898781 114.430917,72.6522995 113.034858,71.5394032 C112.095058,70.7886921 111.121391,70.0812551 110.112917,69.424618 C109.574813,69.0746625 107.944509,68.4424847 107.063976,67.8215958 L107.063976,67.8215958 Z M106.070554,68.3079588 C106.142991,68.2684477 106.213547,68.2364625 106.285984,68.1978921 C106.488243,68.3549958 106.73848,68.4819958 107.006591,68.6607366 C108.461917,69.631581 109.906895,70.5760847 111.256858,71.6965069 C113.404569,73.4792106 115.139295,75.5582477 116.989732,77.5996551 C116.945517,78.0577958 116.880606,78.5140551 116.794058,78.9656106 C116.326509,81.3927217 115.434687,83.7511588 114.202317,85.916744 C111.630332,80.2619514 106.658517,75.1019884 101.060169,72.4660329 C102.515495,70.825381 104.141095,69.3634699 106.070554,68.3079588 L106.070554,68.3079588 Z M91.6405317,66.1056847 C86.6856502,71.9420403 82.3356651,79.8546106 81.9217391,87.1763958 C81.8417762,87.3382032 81.7881539,87.516944 81.7458206,87.7003884 C81.3008502,87.280818 80.8577614,86.8593662 80.4297243,86.4360329 C76.0825614,82.1349662 72.2114132,75.6410329 75.151228,69.482944 C78.3506873,62.7792254 86.0995688,62.1197662 91.6405317,66.1056847 L91.6405317,66.1056847 Z M106.246472,104.264011 C90.1616873,109.008166 72.281028,99.498218 67.5218206,83.3287662 C65.0881243,75.063418 66.642228,65.6738847 73.525628,59.9927514 C81.0647243,53.7706921 89.6085317,55.8619588 97.0262725,60.8657588 C95.957591,61.6823217 94.9462947,62.566618 94.0168428,63.5054773 C93.4834428,64.0445217 92.9519243,64.6193143 92.4241688,65.2100995 C85.9895021,59.0585958 74.9085169,62.4170403 72.8878058,71.2139069 C70.4061317,82.0220773 82.6367021,92.2977884 91.2783465,96.2855884 C101.212569,100.870759 111.600228,94.6562254 116.179754,85.4689514 C117.068754,83.6853069 117.848628,81.1518921 118.234332,78.4830106 C118.639791,78.3823514 118.971872,77.9242106 118.698117,77.4895884 C118.604043,77.3409514 118.500561,77.197018 118.401784,77.0512032 C118.911665,71.1979143 117.307702,65.2129217 110.596458,65.3568551 C105.133576,65.4744477 100.661295,70.1725069 97.6433984,74.2205143 C93.5229539,79.7473662 89.6593317,85.8320773 87.4081391,92.3815143 C85.717628,91.2046477 84.1193095,89.871618 82.6037762,88.4906106 C82.6178873,88.4680329 82.6498725,88.3344477 82.6526947,88.3146921 C82.6649243,88.2394329 82.6668058,88.1604106 82.6705688,88.0832699 C82.7834576,87.7464847 82.8709465,87.3955884 82.8041539,87.0663292 C85.6696502,73.0474106 101.984917,48.4564477 118.874976,59.8836254 C126.546717,65.0746329 126.214635,77.5121662 124.16288,85.5263366 C121.756465,94.926218 115.588969,101.508581 106.246472,104.264011 L106.246472,104.264011 Z M114.983132,56.4659143 C109.125139,54.8421958 103.135443,56.6427736 98.2417095,59.9861662 C98.2125465,59.957944 98.1956132,59.9259588 98.1589243,59.9005588 C92.3583169,55.8854773 85.6837614,53.0143366 78.6423169,55.4743736 C72.7288206,57.541181 68.0034799,62.5355736 66.0862502,68.4782329 C61.4502799,82.8461662 71.1596651,98.2940699 84.1870428,104.193455 C97.2219465,110.094722 115.605902,106.721225 122.776228,93.4219736 C128.736761,82.3673292 130.178917,60.6785514 114.983132,56.4659143 L114.983132,56.4659143 Z" id="Fill-2679"></path>
                <path d="M55.1808027,86.1953579 C49.7591409,82.3839343 42.411089,82.0647104 36.3509414,84.5909825 C37.5645015,83.5356172 38.6949711,82.2862408 40.1414035,81.6023861 C41.9103587,80.7657992 43.7755241,80.3557616 45.6669287,80.3750251 C49.5678138,80.4149281 53.2642524,82.200931 55.1808027,86.1953579 L55.1808027,86.1953579 Z M43.7547515,65.1733615 C37.3349091,60.9051175 29.5298588,60.0121161 22.7120562,64.129004 C22.2156992,57.3234801 33.0601162,58.2164815 35.8283452,59.1920408 C38.9967211,60.3093246 41.5594103,62.308602 43.7547515,65.1733615 L43.7547515,65.1733615 Z M58.2376623,112.688192 C53.1494561,119.340984 44.3112399,119.191004 37.7547353,117.027986 C30.7773112,114.725996 24.6482859,109.528976 19.4704294,103.34126 C11.425947,93.7260155 0.418628657,77.6795093 2.20179674,62.5177487 C4.23642322,45.2191142 21.347621,42.7134815 31.9733786,48.5049191 C31.9854048,48.6218761 32.0160172,48.7388332 32.0859882,48.8392786 C35.2346847,53.3827157 39.4405999,56.6162339 42.3433045,61.3357946 C39.0819983,58.1724506 34.5994789,56.6643927 30.6570485,56.812997 C27.6810929,56.9258261 20.3603735,59.4314588 22.1282354,64.6780141 C22.0156257,65.1238268 22.3458016,65.7141159 22.7874937,65.5696395 C30.2131697,63.1217974 37.3524018,62.5425161 44.2784409,67.5413977 C49.2332648,71.1175312 52.5689152,76.5966247 54.9894757,82.8999213 C52.9526626,80.3970406 49.8695639,79.0238273 46.9592062,78.7403785 C43.3731907,78.3895073 35.1822065,80.181014 34.1359208,85.6738671 C33.4854089,86.0536335 33.9533402,87.458494 34.6366511,87.1489018 C40.896872,84.3130375 47.9377074,82.9315685 53.975989,87.4461103 C54.7828425,88.050159 55.5404976,88.7587811 56.2456744,89.5430813 C56.2631672,89.6380229 56.2872197,89.7247087 56.3025259,89.8210263 C56.3626572,90.1842811 56.6163022,90.3205016 56.8546411,90.2778467 C61.6279776,96.1944971 63.4089591,105.925323 58.2376623,112.688192 L58.2376623,112.688192 Z M62.7311147,100.576946 C62.232571,94.9024657 60.1301601,90.7112757 57.1629509,87.8368844 C56.9759971,86.627411 56.6009961,85.5472783 56.0958927,84.5813508 C56.115572,84.5235602 56.1330648,84.4616418 56.1188519,84.3900916 C54.6407138,76.9130967 50.7321756,70.6937339 45.7205002,66.6236289 C45.748926,66.4942881 45.7434595,66.3525637 45.6877013,66.2163432 C45.4449893,65.6370618 45.1607319,65.0949315 44.8578886,64.5693128 C44.0422887,61.4169765 42.4734069,58.8246581 40.6038683,56.5061567 C38.6435861,54.0748262 36.5521081,51.5320425 34.3392742,49.3676493 C34.3775396,49.2328047 34.3600468,49.0828245 34.2441573,48.9686193 C26.3483634,41.2480786 14.5473111,41.8672629 6.79255257,49.6703616 C-3.97861353,60.5088395 1.61688262,78.048268 8.29692981,89.8939524 C16.0604347,103.66186 26.9824759,117.062385 40.7744227,119.753773 C50.9071031,121.732411 64.1064828,116.238182 62.7311147,100.576946 L62.7311147,100.576946 Z" id="Fill-2761"></path>
            </g>
        </g>
    </g>
</svg>