<?xml version="1.0" encoding="UTF-8" standalone="no"?>
<svg width="73px" height="74px" viewBox="0 0 73 74" version="1.1" xmlns="http://www.w3.org/2000/svg" xmlns:xlink="http://www.w3.org/1999/xlink">
    <!-- Generator: sketchtool 40.3 (33839) - http://www.bohemiancoding.com/sketch -->
    <title>AE7FDE0B-02C4-430B-AA31-9DA20421B643</title>
    <desc>Created with sketchtool.</desc>
    <defs></defs>
    <g id="Page-1" stroke="none" stroke-width="1" fill="none" fill-rule="evenodd">
        <g id="Desktop-HD" transform="translate(-975.000000, -775.000000)" fill="#417505">
            <g id="icon-2" transform="translate(969.000000, 775.000000)">
                <path d="M73.8586822,35.0361213 C73.9136822,41.4641213 65.7996822,45.5291213 60.1706822,43.1131213 C60.2666822,42.4301213 60.3406822,41.7381213 60.3936822,41.0401213 C65.5626822,43.6331213 72.6606822,39.6851213 72.0006822,33.5421213 C71.3736822,27.7101213 64.0436822,24.4781213 59.2226822,27.6531213 C59.0906822,27.0621213 58.9556822,26.4721213 58.8056822,25.8861213 C65.0876822,20.3231213 73.7966822,27.9651213 73.8586822,35.0361213 L73.8586822,35.0361213 Z M58.7296822,43.0261213 C57.5416822,51.0901213 52.4286822,56.9801213 44.8236822,59.7631213 C29.4826822,65.3781213 14.7056822,56.0771213 9.67568216,41.4051213 C12.9986822,43.1401213 16.7206822,42.3881213 20.3466822,41.7561213 C25.8966822,40.7891213 31.3556822,39.2681213 36.6136822,37.2501213 C43.6836822,34.5371213 52.7426822,30.7341213 56.3006822,23.4781213 C57.9336822,29.9061213 59.7196822,36.3081213 58.7296822,43.0261213 L58.7296822,43.0261213 Z M57.1996822,52.0121213 C64.0276822,55.2511213 57.6766822,60.1731213 54.3866822,62.1781213 C51.3326822,64.0401213 47.9356822,65.2871213 44.5666822,66.4381213 C41.0746822,67.6311213 37.3246822,69.0861213 33.6456822,69.4751213 C30.9566822,69.7581213 30.2566822,69.9871213 28.5986822,67.4711213 C26.8666822,64.8431213 27.7206822,64.2591213 29.3686822,62.2651213 C34.3386822,63.4521213 39.6726822,63.3351213 44.7776822,61.6391213 C50.7866822,59.6441213 54.7526822,56.2311213 57.1996822,52.0121213 L57.1996822,52.0121213 Z M65.5416822,47.9981213 C68.4426822,49.3541213 68.8746822,53.1421213 67.9416822,55.7351213 C66.8926822,58.6481213 64.1896822,60.7201213 61.7616822,62.4571213 C56.1456822,66.4731213 50.0026822,69.7921213 43.6426822,72.4631213 C38.0086822,74.8301213 31.8866822,77.0831213 25.6976822,77.0711213 C20.9436822,77.0611213 12.2546822,74.8281213 15.1616822,68.2991213 C16.7806822,64.6641213 21.1976822,62.2631213 24.7056822,60.7261213 C25.8876822,61.2321213 27.1056822,61.6581213 28.3496822,62.0031213 C25.8256822,64.1201213 23.9726822,67.7881213 27.3576822,70.1471213 C31.8466822,73.2761213 39.9296822,69.5831213 44.3706822,68.1281213 C50.1286822,66.2421213 58.7046822,63.5141213 61.8126822,57.7191213 C63.7526822,54.1021213 61.3306822,51.2861213 57.7216822,51.0561213 C58.1536822,50.2131213 58.5366822,49.3451213 58.8596822,48.4491213 C58.9606822,48.4591213 59.0656822,48.4571213 59.1786822,48.4281213 C61.1086822,47.9261213 63.6046822,47.0921213 65.5416822,47.9981213 L65.5416822,47.9981213 Z M18.3166822,34.2051213 C22.3296822,31.6651213 26.4566822,29.3061213 30.7706822,27.3131213 C38.6696822,23.6631213 47.0126822,21.3881213 55.7336822,21.2001213 C55.7416822,21.2311213 55.7496822,21.2621213 55.7566822,21.2931213 C52.0886822,28.8801213 44.4346822,32.5441213 36.8966822,35.5241213 C32.6006822,37.2231213 28.1666822,38.5821213 23.6536822,39.5751213 C19.2586822,40.5431213 13.9326822,42.0271213 9.61368216,40.1821213 C9.57768216,40.1671213 9.54168216,40.1621213 9.50668216,40.1561213 C10.1796822,38.6441213 17.1116822,34.9671213 18.3166822,34.2051213 L18.3166822,34.2051213 Z M59.4706822,28.8341213 C63.7426822,27.6601213 69.0676822,27.5611213 70.3626822,32.9931213 C71.7306822,38.7371213 65.1306822,41.7511213 60.4416822,40.2411213 C60.4376822,40.2401213 60.4346822,40.2411213 60.4296822,40.2401213 C60.6246822,36.5271213 60.2446822,32.6541213 59.4706822,28.8341213 L59.4706822,28.8341213 Z M58.4916822,24.6901213 C58.0806822,23.1981213 57.6186822,21.7291213 57.1176822,20.2961213 C56.9736822,19.8831213 56.6526822,19.7601213 56.3446822,19.8121213 C56.2116822,19.7031213 56.0446822,19.6271213 55.8306822,19.6331213 C46.3146822,19.8941213 37.2406822,22.4951213 28.7086822,26.6571213 C24.8316822,28.5481213 21.0896822,30.7091213 17.4526822,33.0261213 C14.9186822,34.6411213 9.57868216,36.8941213 8.63668216,39.8411213 C8.58268216,40.0091213 8.60268216,40.1861213 8.74768216,40.3051213 L8.93968216,40.4601213 C8.87868216,40.5741213 8.85268216,40.7021213 8.88868216,40.8211213 C8.70868216,40.8971213 8.57268216,41.0581213 8.61868216,41.2891213 C10.3176822,49.8641213 16.0226822,56.4931213 23.3026822,60.0791213 C17.2616822,62.4541213 8.17268216,69.6541213 15.1926822,75.7141213 C22.8786822,82.3501213 36.2856822,77.3891213 44.2596822,74.0851213 C49.8066822,71.7871213 55.1456822,68.9661213 60.1846822,65.7031213 C63.7536822,63.3911213 68.0256822,60.6731213 69.6116822,56.4841213 C70.6786822,53.6671213 70.4346822,50.0391213 68.2706822,47.7811213 C65.8676822,45.2731213 62.4546822,45.7061213 59.4346822,46.6341213 C59.6076822,46.0081213 59.7656822,45.3751213 59.8936822,44.7311213 C67.2026822,48.2681213 76.6276822,41.2651213 75.2566822,33.2561213 C74.1226822,26.6251213 64.0736822,18.2311213 58.4916822,24.6901213 L58.4916822,24.6901213 Z" id="Fill-2586" transform="translate(42.000000, 49.311629) rotate(20.000000) translate(-42.000000, -49.311629) "></path>
                <path d="M30.335691,21.2121834 C27.660691,21.3851834 24.330691,22.4561834 22.783691,19.7131834 C21.659691,17.7211834 22.824691,15.8751834 22.135691,13.7201834 C21.123691,10.5561834 16.926691,9.89018339 14.082691,9.61018339 C13.297691,9.53318339 12.871691,10.6501834 13.666691,10.9861834 C16.862691,12.3361834 20.897691,12.5151834 20.526691,17.1361834 C20.394691,18.7731834 20.051691,20.0991834 21.253691,21.4411834 C23.448691,23.8911834 27.892691,23.0781834 30.546691,22.1161834 C31.053691,21.9331834 30.856691,21.1781834 30.335691,21.2121834" id="Fill-2587" transform="translate(22.041744, 16.332547) rotate(20.000000) translate(-22.041744, -16.332547) "></path>
                <path d="M33.3206214,1.04669773 C32.6496214,0.818697733 31.9726214,1.69469773 32.6276214,2.17769773 C33.1026214,2.52769773 35.7576214,4.30769773 35.7956214,4.34169773 C38.4956214,6.78469773 37.1456214,8.83169773 35.6736214,11.3826977 C35.0526214,12.4596977 34.3316214,13.1806977 34.3536214,14.5016977 C34.4046214,17.6616977 38.4136214,18.7516977 40.8726214,19.4916977 C41.5286214,19.6896977 41.7546214,18.6806977 41.2036214,18.3956977 C40.2296214,17.8916977 37.7066214,16.9226977 37.1256214,16.2016977 C34.9306214,13.4846977 37.4646214,12.3546977 38.5436214,10.7966977 C39.2226214,9.81769773 39.5506214,8.90569773 39.5206214,7.71169773 C39.4346214,4.30069773 36.2466214,2.04069773 33.3206214,1.04669773" id="Fill-2588" transform="translate(36.937759, 10.263388) rotate(20.000000) translate(-36.937759, -10.263388) "></path>
                <path d="M53.0943852,2.69180771 C52.4273852,2.11280771 51.3863852,3.07680771 51.9613852,3.77380771 C52.8243852,4.82080771 53.8043852,5.74080771 54.7003852,6.75480771 C55.4673852,7.62380771 56.3783852,8.56480771 55.3493852,9.68880771 C54.9353852,10.1398077 53.8663852,10.4198077 53.2733852,10.6008077 C51.1463852,11.2498077 48.6783852,10.7428077 47.0403852,12.5498077 C45.0173852,14.7818077 45.9713852,18.4748077 48.9383852,19.1758077 C49.3523852,19.2728077 49.5983852,18.6798077 49.2723852,18.4328077 C47.6653852,17.2168077 46.4303852,14.9358077 48.6003852,13.3478077 C49.7193852,12.5298077 51.5223852,12.7668077 52.8223852,12.5128077 C54.2343852,12.2358077 56.1853852,11.6658077 57.1313852,10.4678077 C59.3763852,7.62580771 54.9193852,4.27780771 53.0943852,2.69180771" id="Fill-2589" transform="translate(51.858720, 10.850383) rotate(20.000000) translate(-51.858720, -10.850383) "></path>
            </g>
        </g>
    </g>
</svg>